STARTFONT 2.1
COMMENT
COMMENT Converted from OpenType font "Q:\font stuff\winfont\neuropolitical.ttf" by "otf2bdf 3.0".
COMMENT
FONT -FreeType-Neuropolitical Rg-Medium-R-Normal--24-240-72-72-P-156-ISO10646-1
SIZE 24 72 72
FONTBOUNDINGBOX 36 29 -3 -6
STARTPROPERTIES 19
FOUNDRY "FreeType"
FAMILY_NAME "Neuropolitical Rg"
WEIGHT_NAME "Medium"
SLANT "R"
SETWIDTH_NAME "Normal"
ADD_STYLE_NAME ""
PIXEL_SIZE 18
POINT_SIZE 240
RESOLUTION_X 72
RESOLUTION_Y 72
SPACING "P"
AVERAGE_WIDTH 156
CHARSET_REGISTRY "ISO10646"
CHARSET_ENCODING "1"
FONT_ASCENT 23
FONT_DESCENT 5
COPYRIGHT "(c) 1999-2011 Typodermic Fonts. www.typodermic.com/license.html - Design: Ray Larabie Languages & kerning: Chikako Larabie"
_OTF_FONTFILE "Q:\font stuff\winfont\neuropolitical.ttf"
_OTF_PSNAME "NeuropoliticalRg-Regular"
ENDPROPERTIES
CHARS 385
STARTCHAR 0017
ENCODING 23
SWIDTH 416 0
DWIDTH 10 0
BBX 0 0 0 0
BITMAP
ENDCHAR
STARTCHAR 0020
ENCODING 32
SWIDTH 416 0
DWIDTH 10 0
BBX 0 0 0 0
BITMAP
ENDCHAR
STARTCHAR 0021
ENCODING 33
SWIDTH 291 0
DWIDTH 7 0
BBX 3 16 2 0
BITMAP
E0
E0
E0
E0
E0
E0
E0
E0
E0
E0
E0
00
00
E0
E0
E0
ENDCHAR
STARTCHAR 0022
ENCODING 34
SWIDTH 416 0
DWIDTH 10 0
BBX 8 6 1 11
BITMAP
E7
E7
E7
E7
E7
E7
ENDCHAR
STARTCHAR 0023
ENCODING 35
SWIDTH 666 0
DWIDTH 16 0
BBX 14 16 1 0
BITMAP
0C30
0C30
1C70
7FFC
7FFC
FFFC
1860
1860
1860
FFF8
FFF8
FFF8
30C0
30C0
30C0
30C0
ENDCHAR
STARTCHAR 0024
ENCODING 36
SWIDTH 833 0
DWIDTH 20 0
BBX 18 20 1 -2
BITMAP
00C000
00C000
3FC000
7FC000
FFC000
E0C000
E0C000
E0C000
FFFF00
FFFF80
3FFFC0
00C1C0
00C1C0
00C1C0
00C1C0
FFFFC0
FFFF80
FFFF00
00C000
00C000
ENDCHAR
STARTCHAR 0025
ENCODING 37
SWIDTH 1041 0
DWIDTH 25 0
BBX 22 17 1 0
BITMAP
7F0000
FF80E0
C181C0
C18380
C18300
C18700
FF8E00
7F1C00
001C00
003BF8
0077FC
00660C
00E60C
01C60C
03860C
0387FC
0703F8
ENDCHAR
STARTCHAR 0026
ENCODING 38
SWIDTH 916 0
DWIDTH 22 0
BBX 21 17 1 0
BITMAP
3FF800
7FFC00
7FFE00
700E00
700E00
700E00
78FE00
3FFC00
7FC000
FFC0E0
E1F0E0
E07CE0
E03FE0
E00FC0
FFFFC0
7FFFE0
3FFEF8
ENDCHAR
STARTCHAR 0027
ENCODING 39
SWIDTH 208 0
DWIDTH 5 0
BBX 3 6 1 11
BITMAP
E0
E0
E0
E0
E0
E0
ENDCHAR
STARTCHAR 0028
ENCODING 40
SWIDTH 375 0
DWIDTH 9 0
BBX 5 26 3 -5
BITMAP
38
78
E0
C0
C0
C0
C0
C0
C0
C0
C0
C0
C0
C0
C0
C0
C0
C0
C0
C0
C0
C0
C0
E0
78
38
ENDCHAR
STARTCHAR 0029
ENCODING 41
SWIDTH 375 0
DWIDTH 9 0
BBX 5 26 1 -5
BITMAP
E0
F0
38
18
18
18
18
18
18
18
18
18
18
18
18
18
18
18
18
18
18
18
18
38
F0
E0
ENDCHAR
STARTCHAR 002A
ENCODING 42
SWIDTH 583 0
DWIDTH 14 0
BBX 12 11 1 7
BITMAP
0600
0600
0600
C620
FFF0
3FC0
0E00
1F00
3980
31C0
3080
ENDCHAR
STARTCHAR 002B
ENCODING 43
SWIDTH 583 0
DWIDTH 14 0
BBX 11 11 2 3
BITMAP
0C00
0C00
0C00
0C00
FFE0
FFE0
FFE0
0C00
0C00
0C00
0C00
ENDCHAR
STARTCHAR 002C
ENCODING 44
SWIDTH 250 0
DWIDTH 6 0
BBX 4 6 1 -2
BITMAP
F0
F0
E0
E0
E0
E0
ENDCHAR
STARTCHAR 002D
ENCODING 45
SWIDTH 416 0
DWIDTH 10 0
BBX 8 3 1 6
BITMAP
FF
FF
FF
ENDCHAR
STARTCHAR 002E
ENCODING 46
SWIDTH 250 0
DWIDTH 6 0
BBX 3 4 2 0
BITMAP
E0
E0
E0
E0
ENDCHAR
STARTCHAR 002F
ENCODING 47
SWIDTH 500 0
DWIDTH 12 0
BBX 12 19 0 -2
BITMAP
0070
0060
00E0
00C0
01C0
01C0
0380
0380
0700
0700
0E00
0E00
1C00
1C00
3800
3800
7000
7000
E000
ENDCHAR
STARTCHAR 0030
ENCODING 48
SWIDTH 875 0
DWIDTH 21 0
BBX 19 16 1 0
BITMAP
1FFF00
7FFFC0
FFFFE0
F001E0
E000E0
E000E0
E000E0
E000E0
E000E0
E000E0
E000E0
E000E0
F001E0
FFFFE0
7FFFC0
1FFF00
ENDCHAR
STARTCHAR 0031
ENCODING 49
SWIDTH 250 0
DWIDTH 6 0
BBX 3 16 2 0
BITMAP
E0
E0
E0
E0
E0
E0
E0
E0
E0
E0
E0
E0
E0
E0
E0
E0
ENDCHAR
STARTCHAR 0032
ENCODING 50
SWIDTH 875 0
DWIDTH 21 0
BBX 19 16 1 0
BITMAP
00FF80
00FFC0
00FFE0
0000E0
0000E0
0000E0
3FFFE0
7FFFE0
FFFF80
E00000
E00000
E00000
E00000
FFFFE0
FFFFE0
FFFFE0
ENDCHAR
STARTCHAR 0033
ENCODING 51
SWIDTH 875 0
DWIDTH 21 0
BBX 19 16 1 0
BITMAP
007F80
007FE0
007FE0
0000E0
0000E0
0000E0
FFFFE0
FFFFC0
FFFFE0
0000E0
0000E0
0000E0
0000E0
FFFFE0
FFFFE0
FFFF80
ENDCHAR
STARTCHAR 0034
ENCODING 52
SWIDTH 958 0
DWIDTH 23 0
BBX 20 16 1 0
BITMAP
E00070
E00070
E00070
E00070
E00070
E00070
E00070
E00070
FFFFF0
FFFFF0
FFFFF0
000070
000070
000070
000070
000070
ENDCHAR
STARTCHAR 0035
ENCODING 53
SWIDTH 916 0
DWIDTH 22 0
BBX 20 16 1 0
BITMAP
FFF000
FFF000
FFF000
E00000
E00000
E00000
FFFFC0
FFFFE0
FFFFF0
000070
000070
000070
000070
FFFFF0
FFFFE0
FFFFC0
ENDCHAR
STARTCHAR 0036
ENCODING 54
SWIDTH 916 0
DWIDTH 22 0
BBX 20 16 1 0
BITMAP
3FE000
7FE000
FFE000
F00000
E00000
E00000
FFFFC0
FFFFE0
FFFFF0
E00070
E00070
E00070
F00070
FFFFF0
7FFFE0
1FFFC0
ENDCHAR
STARTCHAR 0037
ENCODING 55
SWIDTH 916 0
DWIDTH 22 0
BBX 20 16 1 0
BITMAP
FFFFE0
FFFFF0
FFFFF0
0003E0
0003C0
000780
000F00
001F00
003E00
007C00
00F800
00F000
01E000
03E000
07C000
0F8000
ENDCHAR
STARTCHAR 0038
ENCODING 56
SWIDTH 875 0
DWIDTH 21 0
BBX 19 16 1 0
BITMAP
3FFF80
7FFFC0
FFFFE0
F000E0
F000E0
F000E0
FFFFE0
7FFFC0
FFFFE0
E000E0
E000E0
E000E0
E000E0
FFFFE0
FFFFC0
3FFF80
ENDCHAR
STARTCHAR 0039
ENCODING 57
SWIDTH 916 0
DWIDTH 22 0
BBX 20 16 1 0
BITMAP
3FFF80
7FFFE0
FFFFF0
E00070
E00070
E00070
E00070
FFFFF0
7FFFF0
3FFFF0
000070
000070
0000F0
007FF0
007FE0
007FC0
ENDCHAR
STARTCHAR 003A
ENCODING 58
SWIDTH 250 0
DWIDTH 6 0
BBX 3 13 2 0
BITMAP
E0
E0
E0
E0
00
00
00
00
00
E0
E0
E0
E0
ENDCHAR
STARTCHAR 003B
ENCODING 59
SWIDTH 250 0
DWIDTH 6 0
BBX 4 15 1 -2
BITMAP
70
70
70
70
00
00
00
00
00
70
70
70
60
60
E0
ENDCHAR
STARTCHAR 003C
ENCODING 60
SWIDTH 583 0
DWIDTH 14 0
BBX 12 14 1 1
BITMAP
0010
0070
01F0
07C0
1F00
7C00
F000
F000
7C00
1F00
07C0
01F0
0070
0010
ENDCHAR
STARTCHAR 003D
ENCODING 61
SWIDTH 583 0
DWIDTH 14 0
BBX 12 9 1 4
BITMAP
FFF0
FFF0
FFF0
0000
0000
0000
FFF0
FFF0
FFF0
ENDCHAR
STARTCHAR 003E
ENCODING 62
SWIDTH 583 0
DWIDTH 14 0
BBX 12 14 1 1
BITMAP
8000
E000
F800
3E00
0F80
03E0
00F0
00F0
03E0
0F80
3E00
F800
E000
8000
ENDCHAR
STARTCHAR 003F
ENCODING 63
SWIDTH 583 0
DWIDTH 14 0
BBX 12 16 1 0
BITMAP
0FC0
0FE0
0FF0
0070
0070
0070
0070
7FF0
FFE0
FFC0
E000
0000
0000
E000
E000
E000
ENDCHAR
STARTCHAR 0040
ENCODING 64
SWIDTH 708 0
DWIDTH 17 0
BBX 14 20 2 -4
BITMAP
7FF8
FFFC
FFFC
C00C
C00C
C3FC
C7FC
C7FC
C70C
C70C
C70C
C70C
C7FC
C7FC
C3F8
C000
C000
FF00
FF00
7F00
ENDCHAR
STARTCHAR 0041
ENCODING 65
SWIDTH 1041 0
DWIDTH 25 0
BBX 24 17 0 0
BITMAP
001C00
003E00
007F00
007F00
00F780
01E3C0
01E3C0
03C1E0
0781E0
0780F0
0FFFF8
0FFFF8
1FFFFC
3C003C
3C001E
78000F
F8000F
ENDCHAR
STARTCHAR 0042
ENCODING 66
SWIDTH 875 0
DWIDTH 21 0
BBX 19 16 1 0
BITMAP
FFFF80
FFFFE0
FFFFE0
E001E0
E001E0
E001E0
FFFFE0
FFFF80
FFFFE0
E000E0
E000E0
E000E0
E000E0
FFFFE0
FFFFC0
FFFF80
ENDCHAR
STARTCHAR 0043
ENCODING 67
SWIDTH 833 0
DWIDTH 20 0
BBX 17 16 2 0
BITMAP
3FFF80
7FFF80
FFFF80
F00000
E00000
E00000
E00000
E00000
E00000
E00000
E00000
E00000
F00000
FFFF80
7FFF80
3FFF80
ENDCHAR
STARTCHAR 0044
ENCODING 68
SWIDTH 875 0
DWIDTH 21 0
BBX 19 16 1 0
BITMAP
FFFF00
FFFFC0
FFFFE0
E001E0
E000E0
E000E0
E000E0
E000E0
E000E0
E000E0
E000E0
E000E0
E001E0
FFFFE0
FFFFC0
FFFF00
ENDCHAR
STARTCHAR 0045
ENCODING 69
SWIDTH 833 0
DWIDTH 20 0
BBX 17 16 2 0
BITMAP
3FC000
7FC000
FFC000
E00000
E00000
E00000
FFFF80
FFFF80
FFFF80
E00000
E00000
E00000
F00000
FFFF80
7FFF80
3FFF80
ENDCHAR
STARTCHAR 0046
ENCODING 70
SWIDTH 791 0
DWIDTH 19 0
BBX 17 16 2 0
BITMAP
3F8000
7F8000
FF8000
F00000
E00000
E00000
E00000
FFFF80
FFFF80
FFFF80
E00000
E00000
E00000
E00000
E00000
E00000
ENDCHAR
STARTCHAR 0047
ENCODING 71
SWIDTH 875 0
DWIDTH 21 0
BBX 19 16 1 0
BITMAP
3FC000
7FC000
FFC000
F00000
E00000
E00000
E000E0
E000E0
E000E0
E000E0
E000E0
E000E0
F001E0
FFFFE0
7FFFC0
1FFF00
ENDCHAR
STARTCHAR 0048
ENCODING 72
SWIDTH 875 0
DWIDTH 21 0
BBX 19 16 1 0
BITMAP
E000E0
E000E0
E000E0
E000E0
E000E0
E000E0
FFFFE0
FFFFE0
FFFFE0
E000E0
E000E0
E000E0
E000E0
E000E0
E000E0
E000E0
ENDCHAR
STARTCHAR 0049
ENCODING 73
SWIDTH 250 0
DWIDTH 6 0
BBX 3 16 2 0
BITMAP
E0
E0
E0
E0
E0
E0
E0
E0
E0
E0
E0
E0
E0
E0
E0
E0
ENDCHAR
STARTCHAR 004A
ENCODING 74
SWIDTH 500 0
DWIDTH 12 0
BBX 10 16 1 0
BITMAP
01C0
01C0
01C0
01C0
01C0
01C0
01C0
01C0
01C0
01C0
01C0
01C0
03C0
FFC0
FF80
FF00
ENDCHAR
STARTCHAR 004B
ENCODING 75
SWIDTH 791 0
DWIDTH 19 0
BBX 17 16 2 0
BITMAP
E01F00
E03E00
E07C00
E0F800
E1E000
E7C000
EF8000
FF0000
FF0000
E78000
E3E000
E1F000
E0F800
E07C00
E03E00
E00F80
ENDCHAR
STARTCHAR 004C
ENCODING 76
SWIDTH 750 0
DWIDTH 18 0
BBX 16 16 2 0
BITMAP
E000
E000
E000
E000
E000
E000
E000
E000
E000
E000
E000
E000
F000
FFFF
7FFF
3FFF
ENDCHAR
STARTCHAR 004D
ENCODING 77
SWIDTH 1166 0
DWIDTH 28 0
BBX 26 17 1 0
BITMAP
E00001C0
F00003C0
F80007C0
FC000FC0
FE000FC0
FE001FC0
FF003FC0
EF807DC0
E7C0F9C0
E3C0F1C0
E1E1E1C0
E1F3E1C0
E0FFC1C0
E07F81C0
E03F01C0
E01E01C0
E00C01C0
ENDCHAR
STARTCHAR 004E
ENCODING 78
SWIDTH 875 0
DWIDTH 21 0
BBX 19 17 1 0
BITMAP
F00000
F800E0
FC00E0
FE00E0
FF00E0
FF80E0
E7C0E0
E3E0E0
E1F0E0
E0F8E0
E07CE0
E03EE0
E01FE0
E00FE0
E007E0
E003E0
E001E0
ENDCHAR
STARTCHAR 004F
ENCODING 79
SWIDTH 833 0
DWIDTH 20 0
BBX 18 16 1 0
BITMAP
1FFE00
7FFF80
FFFFC0
F003C0
E001C0
E001C0
E001C0
E001C0
E001C0
E001C0
E001C0
E001C0
F003C0
FFFFC0
7FFF80
1FFE00
ENDCHAR
STARTCHAR 0050
ENCODING 80
SWIDTH 875 0
DWIDTH 21 0
BBX 19 16 1 0
BITMAP
FFFF80
FFFFC0
FFFFE0
E001E0
E000E0
E000E0
E000E0
E001E0
FFFFE0
FFFFC0
FFFF80
E00000
E00000
E00000
E00000
E00000
ENDCHAR
STARTCHAR 0051
ENCODING 81
SWIDTH 833 0
DWIDTH 20 0
BBX 19 18 1 -2
BITMAP
1FFE00
7FFF80
FFFFC0
F003C0
E001C0
E001C0
E001C0
E001C0
E001C0
E001C0
E001C0
E001C0
F003C0
FFFF80
7FFF80
3FFF80
0007C0
0003E0
ENDCHAR
STARTCHAR 0052
ENCODING 82
SWIDTH 875 0
DWIDTH 21 0
BBX 19 16 1 0
BITMAP
FFFF80
FFFFC0
FFFFE0
E001E0
E000E0
E000E0
E000E0
E001E0
FFFFE0
FFFFC0
FFFF80
E7E000
E1F800
E0FE00
E03F00
E00FC0
ENDCHAR
STARTCHAR 0053
ENCODING 83
SWIDTH 791 0
DWIDTH 19 0
BBX 17 16 1 0
BITMAP
3F8000
7F8000
FF8000
E00000
E00000
E00000
FFFE00
FFFF00
3FFF80
000380
000380
000380
000380
FFFF80
FFFF00
FFFE00
ENDCHAR
STARTCHAR 0054
ENCODING 84
SWIDTH 750 0
DWIDTH 18 0
BBX 17 16 1 0
BITMAP
FFFF80
FFFF80
FFFF80
01C000
01C000
01C000
01C000
01C000
01C000
01C000
01C000
01C000
01C000
01C000
01C000
01C000
ENDCHAR
STARTCHAR 0055
ENCODING 85
SWIDTH 833 0
DWIDTH 20 0
BBX 18 16 1 0
BITMAP
E001C0
E001C0
E001C0
E001C0
E001C0
E001C0
E001C0
E001C0
E001C0
E001C0
E001C0
E001C0
F003C0
FFFFC0
7FFF80
1FFE00
ENDCHAR
STARTCHAR 0056
ENCODING 86
SWIDTH 1041 0
DWIDTH 25 0
BBX 24 16 0 0
BITMAP
F8000F
7C001E
3C003E
3E003C
1E0078
0F0078
0F80F0
0781F0
03C1E0
03E3C0
01E7C0
00F780
00FF00
007F00
003E00
003C00
ENDCHAR
STARTCHAR 0057
ENCODING 87
SWIDTH 1333 0
DWIDTH 32 0
BBX 32 17 0 0
BITMAP
0001C001
F003C00F
7807E01E
7807E01E
3C07F03C
3C0FF03C
1E0E7838
1E1E7878
0E1C3870
0F3C3CF0
0F381CF0
07F81FE0
07F80FE0
03F00FC0
03F00FC0
01E00780
01C00380
ENDCHAR
STARTCHAR 0058
ENCODING 88
SWIDTH 1000 0
DWIDTH 24 0
BBX 23 16 1 0
BITMAP
FC007C
7E00F8
1F01F0
0F83E0
07C7C0
03EF00
01FE00
00FC00
00FE00
01FF00
07CF80
0F87C0
1F03E0
3E01F0
7C00F8
F8007E
ENDCHAR
STARTCHAR 0059
ENCODING 89
SWIDTH 958 0
DWIDTH 23 0
BBX 21 16 1 0
BITMAP
F800F8
7C01F0
3E03E0
1F07C0
078F80
03DE00
01FC00
00F800
007000
007000
007000
007000
007000
007000
007000
007000
ENDCHAR
STARTCHAR 005A
ENCODING 90
SWIDTH 833 0
DWIDTH 20 0
BBX 18 16 1 0
BITMAP
FFFFC0
FFFFC0
FFFFC0
000F80
001F00
007E00
00F800
01F000
03E000
07C000
1F8000
3F0000
7C0000
FFFFC0
FFFFC0
FFFFC0
ENDCHAR
STARTCHAR 005B
ENCODING 91
SWIDTH 375 0
DWIDTH 9 0
BBX 5 26 3 -5
BITMAP
F8
F8
C0
C0
C0
C0
C0
C0
C0
C0
C0
C0
C0
C0
C0
C0
C0
C0
C0
C0
C0
C0
C0
C0
F8
F8
ENDCHAR
STARTCHAR 005C
ENCODING 92
SWIDTH 500 0
DWIDTH 12 0
BBX 12 19 0 -2
BITMAP
E000
7000
7000
3800
3800
1C00
1C00
0E00
0E00
0700
0700
0380
0380
0180
01C0
00C0
00E0
0060
0070
ENDCHAR
STARTCHAR 005D
ENCODING 93
SWIDTH 375 0
DWIDTH 9 0
BBX 5 26 1 -5
BITMAP
F8
F8
18
18
18
18
18
18
18
18
18
18
18
18
18
18
18
18
18
18
18
18
18
18
F8
F8
ENDCHAR
STARTCHAR 005E
ENCODING 94
SWIDTH 625 0
DWIDTH 15 0
BBX 13 12 1 5
BITMAP
0700
0700
0F80
0F80
1DC0
1DC0
38E0
38E0
7070
7070
E030
E038
ENDCHAR
STARTCHAR 005F
ENCODING 95
SWIDTH 666 0
DWIDTH 16 0
BBX 16 3 0 -4
BITMAP
FFFF
FFFF
FFFF
ENDCHAR
STARTCHAR 0060
ENCODING 96
SWIDTH 416 0
DWIDTH 10 0
BBX 6 5 2 15
BITMAP
E0
70
78
38
1C
ENDCHAR
STARTCHAR 0061
ENCODING 97
SWIDTH 791 0
DWIDTH 19 0
BBX 17 13 1 0
BITMAP
00FE00
00FF00
00FF80
000380
000380
3FFF80
FFFF80
FFFF80
E00380
E00380
FFFF80
FFFF00
3FFE00
ENDCHAR
STARTCHAR 0062
ENCODING 98
SWIDTH 791 0
DWIDTH 19 0
BBX 17 17 1 0
BITMAP
E00000
E00000
E00000
E00000
FFFC00
FFFF00
FFFF80
E00780
E00380
E00380
E00380
E00380
E00380
F00780
FFFF80
7FFF00
1FFC00
ENDCHAR
STARTCHAR 0063
ENCODING 99
SWIDTH 750 0
DWIDTH 18 0
BBX 15 13 2 0
BITMAP
3FFE
7FFE
FFFE
F000
E000
E000
E000
E000
E000
F000
FFFE
7FFE
3FFE
ENDCHAR
STARTCHAR 0064
ENCODING 100
SWIDTH 791 0
DWIDTH 19 0
BBX 17 17 1 0
BITMAP
000380
000380
000380
000380
1FFF80
7FFF80
FFFF80
F00380
E00380
E00380
E00380
E00380
E00380
F00780
FFFF80
7FFF00
1FFC00
ENDCHAR
STARTCHAR 0065
ENCODING 101
SWIDTH 791 0
DWIDTH 19 0
BBX 17 13 1 0
BITMAP
3FFE00
7FFF00
FFFF80
E00380
E00380
FFFF80
FFFF80
FFFF80
E00000
E00000
FF8000
7F8000
3F8000
ENDCHAR
STARTCHAR 0066
ENCODING 102
SWIDTH 416 0
DWIDTH 10 0
BBX 8 17 2 0
BITMAP
7F
FF
FF
E0
FF
FF
FF
E0
E0
E0
E0
E0
E0
E0
E0
E0
E0
ENDCHAR
STARTCHAR 0067
ENCODING 103
SWIDTH 791 0
DWIDTH 19 0
BBX 17 17 1 -4
BITMAP
3FFE00
7FFF00
FFFF80
E00780
E00380
E00380
E00380
E00380
E00380
FFFF80
7FFF80
3FFF80
000380
000380
00FF80
00FF00
00FE00
ENDCHAR
STARTCHAR 0068
ENCODING 104
SWIDTH 791 0
DWIDTH 19 0
BBX 17 17 1 0
BITMAP
E00000
E00000
E00000
E00000
FFFC00
FFFF00
FFFF80
E00780
E00380
E00380
E00380
E00380
E00380
E00380
E00380
E00380
E00380
ENDCHAR
STARTCHAR 0069
ENCODING 105
SWIDTH 250 0
DWIDTH 6 0
BBX 3 17 2 0
BITMAP
E0
E0
E0
00
E0
E0
E0
E0
E0
E0
E0
E0
E0
E0
E0
E0
E0
ENDCHAR
STARTCHAR 006A
ENCODING 106
SWIDTH 250 0
DWIDTH 6 0
BBX 6 21 -1 -4
BITMAP
1C
1C
1C
00
1C
1C
1C
1C
1C
1C
1C
1C
1C
1C
1C
1C
1C
1C
FC
F8
F0
ENDCHAR
STARTCHAR 006B
ENCODING 107
SWIDTH 750 0
DWIDTH 18 0
BBX 15 17 2 0
BITMAP
E000
E000
E000
E000
E03E
E078
E0F0
E3E0
E780
EF00
FE00
EF80
E7C0
E3E0
E1F0
E07C
E03E
ENDCHAR
STARTCHAR 006C
ENCODING 108
SWIDTH 250 0
DWIDTH 6 0
BBX 3 17 2 0
BITMAP
E0
E0
E0
E0
E0
E0
E0
E0
E0
E0
E0
E0
E0
E0
E0
E0
E0
ENDCHAR
STARTCHAR 006D
ENCODING 109
SWIDTH 1083 0
DWIDTH 26 0
BBX 23 13 2 0
BITMAP
3FC7F8
7FEFFC
FFFFFE
E07C0E
E0380E
E0380E
E0380E
E0380E
E0380E
E0380E
E0380E
E0380E
E0380E
ENDCHAR
STARTCHAR 006E
ENCODING 110
SWIDTH 791 0
DWIDTH 19 0
BBX 17 13 1 0
BITMAP
1FFC00
7FFF00
FFFF80
F00780
E00380
E00380
E00380
E00380
E00380
E00380
E00380
E00380
E00380
ENDCHAR
STARTCHAR 006F
ENCODING 111
SWIDTH 791 0
DWIDTH 19 0
BBX 17 13 1 0
BITMAP
1FFC00
7FFF00
FFFF80
F00780
E00380
E00380
E00380
E00380
E00380
F00780
FFFF80
7FFF00
1FFC00
ENDCHAR
STARTCHAR 0070
ENCODING 112
SWIDTH 791 0
DWIDTH 19 0
BBX 17 17 1 -4
BITMAP
1FFC00
7FFF00
FFFF80
F00780
E00380
E00380
E00380
E00380
E00380
E00780
FFFF80
FFFF00
FFFC00
E00000
E00000
E00000
E00000
ENDCHAR
STARTCHAR 0071
ENCODING 113
SWIDTH 791 0
DWIDTH 19 0
BBX 17 17 1 -4
BITMAP
1FFC00
7FFF00
FFFF80
F00780
E00380
E00380
E00380
E00380
E00380
F00380
FFFF80
7FFF80
1FFF80
000380
000380
000380
000380
ENDCHAR
STARTCHAR 0072
ENCODING 114
SWIDTH 458 0
DWIDTH 11 0
BBX 8 13 2 0
BITMAP
3F
7F
FF
F0
E0
E0
E0
E0
E0
E0
E0
E0
E0
ENDCHAR
STARTCHAR 0073
ENCODING 115
SWIDTH 708 0
DWIDTH 17 0
BBX 15 13 1 0
BITMAP
7F00
FF00
FF00
E000
E000
FFFC
FFFE
7FFE
000E
000E
FFFE
FFFE
FFFC
ENDCHAR
STARTCHAR 0074
ENCODING 116
SWIDTH 416 0
DWIDTH 10 0
BBX 9 17 0 0
BITMAP
3800
3800
3800
3800
FF80
FF80
FF80
3800
3800
3800
3800
3800
3800
3800
3800
3800
3800
ENDCHAR
STARTCHAR 0075
ENCODING 117
SWIDTH 791 0
DWIDTH 19 0
BBX 17 13 1 0
BITMAP
E00380
E00380
E00380
E00380
E00380
E00380
E00380
E00380
E00380
F00780
FFFF80
7FFF00
1FFC00
ENDCHAR
STARTCHAR 0076
ENCODING 118
SWIDTH 916 0
DWIDTH 22 0
BBX 21 13 1 0
BITMAP
F00078
F800F0
7801E0
3C01E0
3E03C0
1E0780
0F0F80
078F00
079E00
03FC00
01FC00
00F800
00F000
ENDCHAR
STARTCHAR 0077
ENCODING 119
SWIDTH 1083 0
DWIDTH 26 0
BBX 26 13 0 0
BITMAP
F00E01C0
701E03C0
781F0380
383F0780
3C3F8700
1C7B8F00
1E73CE00
0EF1DE00
0FE1FC00
0FE0FC00
07C0F800
07C07800
03807000
ENDCHAR
STARTCHAR 0078
ENCODING 120
SWIDTH 750 0
DWIDTH 18 0
BBX 16 13 1 0
BITMAP
F00F
781E
3C3C
1E78
0FF0
07E0
03C0
07E0
0FF0
1E78
3C3C
781E
F00F
ENDCHAR
STARTCHAR 0079
ENCODING 121
SWIDTH 791 0
DWIDTH 19 0
BBX 17 17 1 -4
BITMAP
E00380
E00380
E00380
E00380
E00380
E00380
E00380
E00380
E00380
FFFF80
7FFF80
3FFF80
000380
000380
00FF80
00FF00
00FE00
ENDCHAR
STARTCHAR 007A
ENCODING 122
SWIDTH 708 0
DWIDTH 17 0
BBX 15 13 1 0
BITMAP
FFFC
FFFE
FFFC
0078
00F0
01C0
0780
0F00
1E00
3C00
FFFE
FFFE
FFFE
ENDCHAR
STARTCHAR 007B
ENCODING 123
SWIDTH 333 0
DWIDTH 8 0
BBX 7 26 0 -5
BITMAP
0E
1E
18
18
18
18
18
18
18
18
18
18
78
F0
78
18
18
18
18
18
18
18
18
18
1E
0E
ENDCHAR
STARTCHAR 007C
ENCODING 124
SWIDTH 250 0
DWIDTH 6 0
BBX 2 26 2 -5
BITMAP
C0
C0
C0
C0
C0
C0
C0
C0
C0
C0
C0
C0
C0
C0
C0
C0
C0
C0
C0
C0
C0
C0
C0
C0
C0
C0
ENDCHAR
STARTCHAR 007D
ENCODING 125
SWIDTH 333 0
DWIDTH 8 0
BBX 7 26 1 -5
BITMAP
E0
F0
30
30
30
30
30
30
30
30
30
30
3C
1E
3C
30
30
30
30
30
30
30
30
30
F0
E0
ENDCHAR
STARTCHAR 007E
ENCODING 126
SWIDTH 583 0
DWIDTH 14 0
BBX 12 4 1 6
BITMAP
3810
FF70
EFE0
8080
ENDCHAR
STARTCHAR 00A0
ENCODING 160
SWIDTH 416 0
DWIDTH 10 0
BBX 0 0 0 0
BITMAP
ENDCHAR
STARTCHAR 00A1
ENCODING 161
SWIDTH 291 0
DWIDTH 7 0
BBX 3 16 2 0
BITMAP
E0
E0
E0
00
00
E0
E0
E0
E0
E0
E0
E0
E0
E0
E0
E0
ENDCHAR
STARTCHAR 00A2
ENCODING 162
SWIDTH 750 0
DWIDTH 18 0
BBX 15 16 1 0
BITMAP
00C0
1FFE
7FFE
FFFE
F0C0
E0C0
E0C0
E0C0
E0C0
E0C0
F0C0
FFFE
7FFE
1FFE
00C0
00C0
ENDCHAR
STARTCHAR 00A3
ENCODING 163
SWIDTH 833 0
DWIDTH 20 0
BBX 18 16 1 0
BITMAP
0FE000
1FE000
3FE000
3C0000
380000
380000
3FFFC0
3FFFC0
3FFFC0
380000
380000
380000
380000
FFFFC0
FFFFC0
FFFFC0
ENDCHAR
STARTCHAR 00A4
ENCODING 164
SWIDTH 708 0
DWIDTH 17 0
BBX 17 16 0 0
BITMAP
400100
F00780
780F00
3FFE00
1FFC00
0FF800
0C1800
0C1800
0C1800
0C1800
0FF800
1FFC00
3FFE00
780F00
F00780
400100
ENDCHAR
STARTCHAR 00A5
ENCODING 165
SWIDTH 875 0
DWIDTH 21 0
BBX 19 16 1 0
BITMAP
F001E0
7803C0
3C0780
0E0F00
071C00
03B800
01F000
3FFF80
3FFF80
3FFF80
00E000
3FFF80
3FFF80
3FFF80
00E000
00E000
ENDCHAR
STARTCHAR 00A6
ENCODING 166
SWIDTH 250 0
DWIDTH 6 0
BBX 2 26 2 -5
BITMAP
C0
C0
C0
C0
C0
C0
C0
C0
C0
C0
C0
00
00
00
00
C0
C0
C0
C0
C0
C0
C0
C0
C0
C0
C0
ENDCHAR
STARTCHAR 00A7
ENCODING 167
SWIDTH 750 0
DWIDTH 18 0
BBX 15 22 1 -5
BITMAP
3FC0
7FC0
FFC0
F000
E000
E000
E000
FFF8
FFFC
FFFE
E00E
E00E
E00E
FFFE
7FFE
3FFE
000E
000E
000E
FFFE
FFFC
FFF8
ENDCHAR
STARTCHAR 00A8
ENCODING 168
SWIDTH 500 0
DWIDTH 12 0
BBX 10 3 1 14
BITMAP
E1C0
E1C0
E1C0
ENDCHAR
STARTCHAR 00A9
ENCODING 169
SWIDTH 875 0
DWIDTH 21 0
BBX 19 17 1 0
BITMAP
1FFF00
7FFFC0
6000C0
C00060
C00060
C3FC60
C60060
C60060
C60060
C60060
C60060
C3FC60
C00060
C00060
6000C0
7FFFC0
1FFF00
ENDCHAR
STARTCHAR 00AA
ENCODING 170
SWIDTH 500 0
DWIDTH 12 0
BBX 9 8 2 7
BITMAP
0F00
0F80
0180
0180
FF80
C180
FF80
FF00
ENDCHAR
STARTCHAR 00AB
ENCODING 171
SWIDTH 583 0
DWIDTH 14 0
BBX 13 11 0 2
BITMAP
0408
0C18
1C38
7CF8
70E0
E1C0
70E0
7CF8
1C38
0C18
0408
ENDCHAR
STARTCHAR 00AC
ENCODING 172
SWIDTH 541 0
DWIDTH 13 0
BBX 11 10 1 0
BITMAP
FFE0
FFE0
FFE0
0060
0060
0060
0060
0060
0060
0060
ENDCHAR
STARTCHAR 00AE
ENCODING 174
SWIDTH 875 0
DWIDTH 21 0
BBX 19 17 1 0
BITMAP
1FFF00
7FFFC0
6000C0
C00060
C00060
C7F860
C60C60
C60C60
C60C60
C7F860
C66060
C61860
C00060
C00060
6000C0
7FFFC0
1FFF00
ENDCHAR
STARTCHAR 00AF
ENCODING 175
SWIDTH 666 0
DWIDTH 16 0
BBX 13 3 1 16
BITMAP
FFF8
FFF8
FFF8
ENDCHAR
STARTCHAR 00B0
ENCODING 176
SWIDTH 458 0
DWIDTH 11 0
BBX 9 9 1 8
BITMAP
7F00
FF80
FF80
C180
C180
C180
FF80
FF80
7F00
ENDCHAR
STARTCHAR 00B1
ENCODING 177
SWIDTH 583 0
DWIDTH 14 0
BBX 12 15 1 -1
BITMAP
0600
0600
0600
0600
7FF0
7FF0
7FF0
0600
0600
0600
0600
0000
FFF0
FFF0
FFF0
ENDCHAR
STARTCHAR 00B2
ENCODING 178
SWIDTH 500 0
DWIDTH 12 0
BBX 10 8 1 9
BITMAP
0F80
0FC0
00C0
FFC0
FF80
C000
FFC0
FFC0
ENDCHAR
STARTCHAR 00B3
ENCODING 179
SWIDTH 500 0
DWIDTH 12 0
BBX 10 8 1 9
BITMAP
0780
07C0
00C0
FFC0
FFC0
00C0
FFC0
FFC0
ENDCHAR
STARTCHAR 00B4
ENCODING 180
SWIDTH 416 0
DWIDTH 10 0
BBX 6 5 2 15
BITMAP
3C
38
70
F0
E0
ENDCHAR
STARTCHAR 00B6
ENCODING 182
SWIDTH 875 0
DWIDTH 21 0
BBX 19 21 1 -4
BITMAP
3FFFE0
7FFFE0
FFFFE0
E0E0E0
E0E0E0
E0E0E0
E0E0E0
E0E0E0
FFE0E0
7FE0E0
3FE0E0
00E0E0
00E0E0
00E0E0
00E0E0
00E0E0
00E0E0
00E0E0
00E0E0
00E0E0
00E0E0
ENDCHAR
STARTCHAR 00B7
ENCODING 183
SWIDTH 250 0
DWIDTH 6 0
BBX 3 4 2 6
BITMAP
E0
E0
E0
E0
ENDCHAR
STARTCHAR 00B8
ENCODING 184
SWIDTH 291 0
DWIDTH 7 0
BBX 4 5 1 -5
BITMAP
70
70
70
60
E0
ENDCHAR
STARTCHAR 00B9
ENCODING 185
SWIDTH 166 0
DWIDTH 4 0
BBX 2 8 1 9
BITMAP
C0
C0
C0
C0
C0
C0
C0
C0
ENDCHAR
STARTCHAR 00BA
ENCODING 186
SWIDTH 458 0
DWIDTH 11 0
BBX 9 8 1 7
BITMAP
7F00
FF80
FF80
C180
C180
FF80
FF80
7F00
ENDCHAR
STARTCHAR 00BB
ENCODING 187
SWIDTH 583 0
DWIDTH 14 0
BBX 13 11 0 2
BITMAP
8100
C180
F1E0
78F0
3C78
0C18
3C78
78F0
F1E0
C180
8100
ENDCHAR
STARTCHAR 00BC
ENCODING 188
SWIDTH 916 0
DWIDTH 22 0
BBX 19 17 2 0
BITMAP
C00000
C01C00
C03800
C07000
C06000
C0E000
C1C000
C38000
038000
076060
0E6060
0C6060
1C6060
387FE0
707FE0
700060
E00060
ENDCHAR
STARTCHAR 00BD
ENCODING 189
SWIDTH 833 0
DWIDTH 20 0
BBX 17 17 2 0
BITMAP
C00000
C01C00
C03800
C07000
C06000
C0E000
C1C000
C38000
038000
071F00
0E1F80
0C0180
1DFF80
39FF00
718000
71FF80
E1FF80
ENDCHAR
STARTCHAR 00BE
ENCODING 190
SWIDTH 1125 0
DWIDTH 27 0
BBX 24 17 1 0
BITMAP
078000
07C0E0
00C1C0
FFC380
FFC300
00C700
FFCE00
FFDC00
001C00
003B03
007303
006303
00E303
01C3FF
0383FF
038003
070003
ENDCHAR
STARTCHAR 00BF
ENCODING 191
SWIDTH 583 0
DWIDTH 14 0
BBX 12 16 1 0
BITMAP
0070
0070
0070
0000
0000
0070
3FF0
7FF0
FFE0
E000
E000
E000
E000
FF00
7F00
3F00
ENDCHAR
STARTCHAR 00C0
ENCODING 192
SWIDTH 1041 0
DWIDTH 25 0
BBX 24 23 0 0
BITMAP
00E000
007000
007800
003800
001C00
000000
001C00
003E00
007F00
007F00
00F780
01E3C0
01E3C0
03C1E0
0781E0
0780F0
0FFFF8
0FFFF8
1FFFFC
3C003C
3C001E
78000F
F8000F
ENDCHAR
STARTCHAR 00C1
ENCODING 193
SWIDTH 1041 0
DWIDTH 25 0
BBX 24 23 0 0
BITMAP
000780
000700
000E00
001E00
001C00
000000
001C00
003E00
007F00
007F00
00F780
01E3C0
01E3C0
03C1E0
0781E0
0780F0
0FFFF8
0FFFF8
1FFFFC
3C003C
3C001E
78000F
F8000F
ENDCHAR
STARTCHAR 00C2
ENCODING 194
SWIDTH 1041 0
DWIDTH 25 0
BBX 24 23 0 0
BITMAP
001C00
003E00
007F00
00F780
00E3C0
01C1C0
001C00
003E00
007F00
007F00
00F780
01E3C0
01E3C0
03C1E0
0781E0
0780F0
0FFFF8
0FFFF8
1FFFFC
3C003C
3C001E
78000F
F8000F
ENDCHAR
STARTCHAR 00C3
ENCODING 195
SWIDTH 1041 0
DWIDTH 25 0
BBX 24 22 0 0
BITMAP
03FFE0
03FFE0
03FFE0
000000
000000
001C00
003E00
007F00
007F00
00F780
01E3C0
01E3C0
03C1E0
0781E0
0780F0
0FFFF8
0FFFF8
1FFFFC
3C003C
3C001E
78000F
F8000F
ENDCHAR
STARTCHAR 00C4
ENCODING 196
SWIDTH 1041 0
DWIDTH 25 0
BBX 24 20 0 0
BITMAP
01C380
01C380
01C380
001C00
003E00
007F00
007F00
00F780
01E3C0
01E3C0
03C1E0
0781E0
0780F0
0FFFF8
0FFFF8
1FFFFC
3C003C
3C001E
78000F
F8000F
ENDCHAR
STARTCHAR 00C5
ENCODING 197
SWIDTH 1041 0
DWIDTH 25 0
BBX 24 23 0 0
BITMAP
007F00
00FF80
00C180
00C180
00C180
00FF80
007F00
003E00
007F00
007F00
00F780
01E3C0
01E3C0
03C1E0
0781E0
0780F0
0FFFF8
0FFFF8
1FFFFC
3C003C
3C001E
78000F
F8000F
ENDCHAR
STARTCHAR 00C6
ENCODING 198
SWIDTH 1333 0
DWIDTH 32 0
BBX 31 16 0 0
BITMAP
003FFF00
007FFF00
007FFF00
00F38000
01E38000
01E38000
03C3FFFE
0783FFFE
0783FFFE
0FFF8000
1FFF8000
1FFF8000
3C038000
7C03FFFE
7801FFFE
F800FFFE
ENDCHAR
STARTCHAR 00C7
ENCODING 199
SWIDTH 833 0
DWIDTH 20 0
BBX 17 21 2 -5
BITMAP
3FFF80
7FFF80
FFFF80
F00000
E00000
E00000
E00000
E00000
E00000
E00000
E00000
E00000
F00000
FFFF80
7FFF80
3FFF80
01C000
01C000
01C000
018000
038000
ENDCHAR
STARTCHAR 00C8
ENCODING 200
SWIDTH 833 0
DWIDTH 20 0
BBX 17 23 2 0
BITMAP
0E0000
070000
078000
038000
01C000
000000
000000
3FC000
7FC000
FFC000
E00000
E00000
E00000
FFFF80
FFFF80
FFFF80
E00000
E00000
E00000
F00000
FFFF80
7FFF80
3FFF80
ENDCHAR
STARTCHAR 00C9
ENCODING 201
SWIDTH 833 0
DWIDTH 20 0
BBX 17 23 2 0
BITMAP
00F000
00E000
01C000
03C000
038000
000000
000000
3FC000
7FC000
FFC000
E00000
E00000
E00000
FFFF80
FFFF80
FFFF80
E00000
E00000
E00000
F00000
FFFF80
7FFF80
3FFF80
ENDCHAR
STARTCHAR 00CA
ENCODING 202
SWIDTH 833 0
DWIDTH 20 0
BBX 17 23 2 0
BITMAP
01C000
03E000
07F000
0F7800
0E3C00
1C1C00
000000
3FC000
7FC000
FFC000
E00000
E00000
E00000
FFFF80
FFFF80
FFFF80
E00000
E00000
E00000
F00000
FFFF80
7FFF80
3FFF80
ENDCHAR
STARTCHAR 00CB
ENCODING 203
SWIDTH 833 0
DWIDTH 20 0
BBX 17 20 2 0
BITMAP
1C3800
1C3800
1C3800
000000
3FC000
7FC000
FFC000
E00000
E00000
E00000
FFFF80
FFFF80
FFFF80
E00000
E00000
E00000
F00000
FFFF80
7FFF80
3FFF80
ENDCHAR
STARTCHAR 00CC
ENCODING 204
SWIDTH 291 0
DWIDTH 7 0
BBX 6 23 -1 0
BITMAP
E0
70
78
38
1C
00
00
1C
1C
1C
1C
1C
1C
1C
1C
1C
1C
1C
1C
1C
1C
1C
1C
ENDCHAR
STARTCHAR 00CD
ENCODING 205
SWIDTH 291 0
DWIDTH 7 0
BBX 6 23 2 0
BITMAP
3C
38
70
F0
E0
00
00
E0
E0
E0
E0
E0
E0
E0
E0
E0
E0
E0
E0
E0
E0
E0
E0
ENDCHAR
STARTCHAR 00CE
ENCODING 206
SWIDTH 291 0
DWIDTH 7 0
BBX 11 23 -2 0
BITMAP
0E00
1F00
3F80
7BC0
71E0
E0E0
0000
0E00
0E00
0E00
0E00
0E00
0E00
0E00
0E00
0E00
0E00
0E00
0E00
0E00
0E00
0E00
0E00
ENDCHAR
STARTCHAR 00CF
ENCODING 207
SWIDTH 291 0
DWIDTH 7 0
BBX 10 20 -2 0
BITMAP
E1C0
E1C0
E1C0
0000
0E00
0E00
0E00
0E00
0E00
0E00
0E00
0E00
0E00
0E00
0E00
0E00
0E00
0E00
0E00
0E00
ENDCHAR
STARTCHAR 00D0
ENCODING 208
SWIDTH 916 0
DWIDTH 22 0
BBX 21 16 0 0
BITMAP
3FFFC0
3FFFF0
3FFFF8
380078
380038
380038
FFF038
FFF038
FFF038
380038
380038
380038
380078
3FFFF8
3FFFF0
3FFFC0
ENDCHAR
STARTCHAR 00D1
ENCODING 209
SWIDTH 916 0
DWIDTH 22 0
BBX 19 22 1 0
BITMAP
1FFF00
1FFF00
1FFF00
000000
000000
F00000
F800E0
FC00E0
FE00E0
FF00E0
FF80E0
E7C0E0
E3E0E0
E1F0E0
E0F8E0
E07CE0
E03EE0
E01FE0
E00FE0
E007E0
E003E0
E001E0
ENDCHAR
STARTCHAR 00D2
ENCODING 210
SWIDTH 875 0
DWIDTH 21 0
BBX 18 23 1 0
BITMAP
038000
01C000
01E000
00E000
007000
000000
000000
1FFE00
7FFF80
FFFFC0
F003C0
E001C0
E001C0
E001C0
E001C0
E001C0
E001C0
E001C0
E001C0
F003C0
FFFFC0
7FFF80
1FFE00
ENDCHAR
STARTCHAR 00D3
ENCODING 211
SWIDTH 875 0
DWIDTH 21 0
BBX 18 23 1 0
BITMAP
003C00
003800
007000
00F000
00E000
000000
000000
1FFE00
7FFF80
FFFFC0
F003C0
E001C0
E001C0
E001C0
E001C0
E001C0
E001C0
E001C0
E001C0
F003C0
FFFFC0
7FFF80
1FFE00
ENDCHAR
STARTCHAR 00D4
ENCODING 212
SWIDTH 875 0
DWIDTH 21 0
BBX 18 23 1 0
BITMAP
00E000
01F000
03F800
07BC00
071E00
0E0E00
000000
1FFE00
7FFF80
FFFFC0
F003C0
E001C0
E001C0
E001C0
E001C0
E001C0
E001C0
E001C0
E001C0
F003C0
FFFFC0
7FFF80
1FFE00
ENDCHAR
STARTCHAR 00D5
ENCODING 213
SWIDTH 875 0
DWIDTH 21 0
BBX 18 22 1 0
BITMAP
1FFF00
1FFF00
1FFF00
000000
000000
000000
1FFE00
7FFF80
FFFFC0
F003C0
E001C0
E001C0
E001C0
E001C0
E001C0
E001C0
E001C0
E001C0
F003C0
FFFFC0
7FFF80
1FFE00
ENDCHAR
STARTCHAR 00D6
ENCODING 214
SWIDTH 875 0
DWIDTH 21 0
BBX 18 20 1 0
BITMAP
0E1C00
0E1C00
0E1C00
000000
1FFE00
7FFF80
FFFFC0
F003C0
E001C0
E001C0
E001C0
E001C0
E001C0
E001C0
E001C0
E001C0
F003C0
FFFFC0
7FFF80
1FFE00
ENDCHAR
STARTCHAR 00D7
ENCODING 215
SWIDTH 583 0
DWIDTH 14 0
BBX 10 9 2 4
BITMAP
4080
E1C0
7380
3F00
1E00
3F00
7380
E1C0
4080
ENDCHAR
STARTCHAR 00D8
ENCODING 216
SWIDTH 833 0
DWIDTH 20 0
BBX 18 21 1 -2
BITMAP
0001C0
000380
000300
1FFF80
7FFF80
FFFFC0
F03FC0
E03DC0
E079C0
E0F1C0
E1E1C0
E1E1C0
E3C1C0
E781C0
EF01C0
EF03C0
FFFFC0
7FFF80
3FFE00
700000
E00000
ENDCHAR
STARTCHAR 00D9
ENCODING 217
SWIDTH 875 0
DWIDTH 21 0
BBX 18 23 1 0
BITMAP
038000
01C000
01E000
00E000
007000
000000
000000
E001C0
E001C0
E001C0
E001C0
E001C0
E001C0
E001C0
E001C0
E001C0
E001C0
E001C0
E001C0
F003C0
FFFFC0
7FFF80
1FFE00
ENDCHAR
STARTCHAR 00DA
ENCODING 218
SWIDTH 875 0
DWIDTH 21 0
BBX 18 23 1 0
BITMAP
003C00
003800
007000
00F000
00E000
000000
000000
E001C0
E001C0
E001C0
E001C0
E001C0
E001C0
E001C0
E001C0
E001C0
E001C0
E001C0
E001C0
F003C0
FFFFC0
7FFF80
1FFE00
ENDCHAR
STARTCHAR 00DB
ENCODING 219
SWIDTH 875 0
DWIDTH 21 0
BBX 18 23 1 0
BITMAP
00E000
01F000
03F800
07BC00
071E00
0E0E00
000000
E001C0
E001C0
E001C0
E001C0
E001C0
E001C0
E001C0
E001C0
E001C0
E001C0
E001C0
E001C0
F003C0
FFFFC0
7FFF80
1FFE00
ENDCHAR
STARTCHAR 00DC
ENCODING 220
SWIDTH 875 0
DWIDTH 21 0
BBX 18 20 1 0
BITMAP
0E1C00
0E1C00
0E1C00
000000
E001C0
E001C0
E001C0
E001C0
E001C0
E001C0
E001C0
E001C0
E001C0
E001C0
E001C0
E001C0
F003C0
FFFFC0
7FFF80
1FFE00
ENDCHAR
STARTCHAR 00DD
ENCODING 221
SWIDTH 958 0
DWIDTH 23 0
BBX 21 23 1 0
BITMAP
001E00
001C00
003800
007800
007000
000000
000000
F800F8
7C01F0
3E03E0
1F07C0
078F80
03DE00
01FC00
00F800
007000
007000
007000
007000
007000
007000
007000
007000
ENDCHAR
STARTCHAR 00DE
ENCODING 222
SWIDTH 875 0
DWIDTH 21 0
BBX 19 16 1 0
BITMAP
E00000
E00000
FFFF80
FFFFC0
FFFFE0
E001E0
E000E0
E000E0
E000E0
E000E0
E001E0
FFFFE0
FFFFC0
FFFF80
E00000
E00000
ENDCHAR
STARTCHAR 00DF
ENCODING 223
SWIDTH 916 0
DWIDTH 22 0
BBX 19 17 2 0
BITMAP
7FC000
FFE000
FFE000
E0E000
E0E000
E0E000
E0FF80
E0FFC0
E07FE0
E000E0
E000E0
E000E0
E000E0
E000E0
E3FFE0
E3FFC0
E3FF80
ENDCHAR
STARTCHAR 00E0
ENCODING 224
SWIDTH 833 0
DWIDTH 20 0
BBX 17 20 1 0
BITMAP
038000
01C000
01E000
00E000
007000
000000
000000
00FE00
00FF00
00FF80
000380
000380
3FFF80
FFFF80
FFFF80
E00380
E00380
FFFF80
FFFF00
3FFE00
ENDCHAR
STARTCHAR 00E1
ENCODING 225
SWIDTH 833 0
DWIDTH 20 0
BBX 17 20 1 0
BITMAP
003C00
003800
007000
00F000
00E000
000000
000000
00FE00
00FF00
00FF80
000380
000380
3FFF80
FFFF80
FFFF80
E00380
E00380
FFFF80
FFFF00
3FFE00
ENDCHAR
STARTCHAR 00E2
ENCODING 226
SWIDTH 833 0
DWIDTH 20 0
BBX 17 20 1 0
BITMAP
00E000
01F000
03F800
07BC00
071E00
0E0E00
000000
00FE00
00FF00
00FF80
000380
000380
3FFF80
FFFF80
FFFF80
E00380
E00380
FFFF80
FFFF00
3FFE00
ENDCHAR
STARTCHAR 00E3
ENCODING 227
SWIDTH 833 0
DWIDTH 20 0
BBX 17 19 1 0
BITMAP
1FFF00
1FFF00
1FFF00
000000
000000
000000
00FE00
00FF00
00FF80
000380
000380
3FFF80
FFFF80
FFFF80
E00380
E00380
FFFF80
FFFF00
3FFE00
ENDCHAR
STARTCHAR 00E4
ENCODING 228
SWIDTH 833 0
DWIDTH 20 0
BBX 17 17 1 0
BITMAP
070E00
070E00
070E00
000000
00FE00
00FF00
00FF80
000380
000380
3FFF80
FFFF80
FFFF80
E00380
E00380
FFFF80
FFFF00
3FFE00
ENDCHAR
STARTCHAR 00E5
ENCODING 229
SWIDTH 833 0
DWIDTH 20 0
BBX 17 20 1 0
BITMAP
03F800
07FC00
060C00
060C00
060C00
07FC00
03F800
00FE00
00FF00
00FF80
000380
000380
3FFF80
FFFF80
FFFF80
E00380
E00380
FFFF80
FFFF00
3FFE00
ENDCHAR
STARTCHAR 00E6
ENCODING 230
SWIDTH 1333 0
DWIDTH 32 0
BBX 30 13 1 0
BITMAP
00FEFFF0
00FFFFF8
00FFFFFC
0003801C
0003801C
3FFFFFFC
FFFFFFFC
FFFFFFFC
E0038000
E0038000
FFFFFE00
FFFFFE00
3FFEFE00
ENDCHAR
STARTCHAR 00E7
ENCODING 231
SWIDTH 750 0
DWIDTH 18 0
BBX 15 18 2 -5
BITMAP
3FFE
7FFE
FFFE
F000
E000
E000
E000
E000
E000
F000
FFFE
7FFE
3FFE
0380
0380
0380
0300
0700
ENDCHAR
STARTCHAR 00E8
ENCODING 232
SWIDTH 791 0
DWIDTH 19 0
BBX 17 20 1 0
BITMAP
070000
038000
03C000
01C000
00E000
000000
000000
3FFE00
7FFF00
FFFF80
E00380
E00380
FFFF80
FFFF80
FFFF80
E00000
E00000
FF8000
7F8000
3F8000
ENDCHAR
STARTCHAR 00E9
ENCODING 233
SWIDTH 791 0
DWIDTH 19 0
BBX 17 20 1 0
BITMAP
007800
007000
00E000
01E000
01C000
000000
000000
3FFE00
7FFF00
FFFF80
E00380
E00380
FFFF80
FFFF80
FFFF80
E00000
E00000
FF8000
7F8000
3F8000
ENDCHAR
STARTCHAR 00EA
ENCODING 234
SWIDTH 791 0
DWIDTH 19 0
BBX 17 20 1 0
BITMAP
01C000
03E000
07F000
0F7800
0E3C00
1C1C00
000000
3FFE00
7FFF00
FFFF80
E00380
E00380
FFFF80
FFFF80
FFFF80
E00000
E00000
FF8000
7F8000
3F8000
ENDCHAR
STARTCHAR 00EB
ENCODING 235
SWIDTH 791 0
DWIDTH 19 0
BBX 17 17 1 0
BITMAP
1C3800
1C3800
1C3800
000000
3FFE00
7FFF00
FFFF80
E00380
E00380
FFFF80
FFFF80
FFFF80
E00000
E00000
FF8000
7F8000
3F8000
ENDCHAR
STARTCHAR 00EC
ENCODING 236
SWIDTH 250 0
DWIDTH 6 0
BBX 6 20 -1 0
BITMAP
E0
70
78
38
1C
00
00
1C
1C
1C
1C
1C
1C
1C
1C
1C
1C
1C
1C
1C
ENDCHAR
STARTCHAR 00ED
ENCODING 237
SWIDTH 250 0
DWIDTH 6 0
BBX 6 20 2 0
BITMAP
3C
38
70
F0
E0
00
00
E0
E0
E0
E0
E0
E0
E0
E0
E0
E0
E0
E0
E0
ENDCHAR
STARTCHAR 00EE
ENCODING 238
SWIDTH 416 0
DWIDTH 10 0
BBX 11 20 -1 0
BITMAP
0E00
1F00
3F80
7BC0
71E0
E0E0
0000
0700
0700
0700
0700
0700
0700
0700
0700
0700
0700
0700
0700
0700
ENDCHAR
STARTCHAR 00EF
ENCODING 239
SWIDTH 333 0
DWIDTH 8 0
BBX 10 17 -1 0
BITMAP
E1C0
E1C0
E1C0
0000
0E00
0E00
0E00
0E00
0E00
0E00
0E00
0E00
0E00
0E00
0E00
0E00
0E00
ENDCHAR
STARTCHAR 00F0
ENCODING 240
SWIDTH 791 0
DWIDTH 19 0
BBX 19 19 1 0
BITMAP
0000E0
0001C0
07FFC0
07FF80
07FF80
000380
000380
1FFF80
7FFF80
FFFF80
F00380
E00380
E00380
E00380
E00380
F00780
FFFF80
7FFF00
1FFC00
ENDCHAR
STARTCHAR 00F1
ENCODING 241
SWIDTH 833 0
DWIDTH 20 0
BBX 17 19 1 0
BITMAP
3FFE00
3FFE00
3FFE00
000000
000000
000000
1FFC00
7FFF00
FFFF80
F00780
E00380
E00380
E00380
E00380
E00380
E00380
E00380
E00380
E00380
ENDCHAR
STARTCHAR 00F2
ENCODING 242
SWIDTH 791 0
DWIDTH 19 0
BBX 17 20 1 0
BITMAP
070000
038000
03C000
01C000
00E000
000000
000000
1FFC00
7FFF00
FFFF80
F00780
E00380
E00380
E00380
E00380
E00380
F00780
FFFF80
7FFF00
1FFC00
ENDCHAR
STARTCHAR 00F3
ENCODING 243
SWIDTH 791 0
DWIDTH 19 0
BBX 17 20 1 0
BITMAP
007800
007000
00E000
01E000
01C000
000000
000000
1FFC00
7FFF00
FFFF80
F00780
E00380
E00380
E00380
E00380
E00380
F00780
FFFF80
7FFF00
1FFC00
ENDCHAR
STARTCHAR 00F4
ENCODING 244
SWIDTH 791 0
DWIDTH 19 0
BBX 17 20 1 0
BITMAP
01C000
03E000
07F000
0F7800
0E3C00
1C1C00
000000
1FFC00
7FFF00
FFFF80
F00780
E00380
E00380
E00380
E00380
E00380
F00780
FFFF80
7FFF00
1FFC00
ENDCHAR
STARTCHAR 00F5
ENCODING 245
SWIDTH 791 0
DWIDTH 19 0
BBX 17 19 1 0
BITMAP
3FFE00
3FFE00
3FFE00
000000
000000
000000
1FFC00
7FFF00
FFFF80
F00780
E00380
E00380
E00380
E00380
E00380
F00780
FFFF80
7FFF00
1FFC00
ENDCHAR
STARTCHAR 00F6
ENCODING 246
SWIDTH 791 0
DWIDTH 19 0
BBX 17 17 1 0
BITMAP
1C3800
1C3800
1C3800
000000
1FFC00
7FFF00
FFFF80
F00780
E00380
E00380
E00380
E00380
E00380
F00780
FFFF80
7FFF00
1FFC00
ENDCHAR
STARTCHAR 00F7
ENCODING 247
SWIDTH 583 0
DWIDTH 14 0
BBX 12 13 1 2
BITMAP
0700
0700
0700
0700
0000
FFF0
FFF0
FFF0
0000
0700
0700
0700
0700
ENDCHAR
STARTCHAR 00F8
ENCODING 248
SWIDTH 791 0
DWIDTH 19 0
BBX 17 17 1 -2
BITMAP
000380
000700
1FFE00
7FFF00
FFFF00
F07F80
E0F380
E1E380
E3E380
E7C380
E78380
FF0780
7FFF80
7FFF00
3FFC00
700000
E00000
ENDCHAR
STARTCHAR 00F9
ENCODING 249
SWIDTH 791 0
DWIDTH 19 0
BBX 17 20 1 0
BITMAP
070000
038000
03C000
01C000
00E000
000000
000000
E00380
E00380
E00380
E00380
E00380
E00380
E00380
E00380
E00380
F00780
FFFF80
7FFF00
1FFC00
ENDCHAR
STARTCHAR 00FA
ENCODING 250
SWIDTH 791 0
DWIDTH 19 0
BBX 17 20 1 0
BITMAP
007800
007000
00E000
01E000
01C000
000000
000000
E00380
E00380
E00380
E00380
E00380
E00380
E00380
E00380
E00380
F00780
FFFF80
7FFF00
1FFC00
ENDCHAR
STARTCHAR 00FB
ENCODING 251
SWIDTH 791 0
DWIDTH 19 0
BBX 17 20 1 0
BITMAP
01C000
03E000
07F000
0F7800
0E3C00
1C1C00
000000
E00380
E00380
E00380
E00380
E00380
E00380
E00380
E00380
E00380
F00780
FFFF80
7FFF00
1FFC00
ENDCHAR
STARTCHAR 00FC
ENCODING 252
SWIDTH 791 0
DWIDTH 19 0
BBX 17 17 1 0
BITMAP
1C3800
1C3800
1C3800
000000
E00380
E00380
E00380
E00380
E00380
E00380
E00380
E00380
E00380
F00780
FFFF80
7FFF00
1FFC00
ENDCHAR
STARTCHAR 00FD
ENCODING 253
SWIDTH 833 0
DWIDTH 20 0
BBX 17 24 1 -4
BITMAP
007800
007000
00E000
01E000
01C000
000000
000000
E00380
E00380
E00380
E00380
E00380
E00380
E00380
E00380
E00380
FFFF80
7FFF80
3FFF80
000380
000380
00FF80
00FF00
00FE00
ENDCHAR
STARTCHAR 00FE
ENCODING 254
SWIDTH 791 0
DWIDTH 19 0
BBX 17 21 1 -4
BITMAP
E00000
E00000
E00000
E00000
FFFC00
FFFF00
FFFF00
E00780
E00380
E00380
E00380
E00380
E00380
E00780
FFFF80
FFFF00
FFFC00
E00000
E00000
E00000
E00000
ENDCHAR
STARTCHAR 00FF
ENCODING 255
SWIDTH 833 0
DWIDTH 20 0
BBX 17 21 1 -4
BITMAP
0E1C00
0E1C00
0E1C00
000000
E00380
E00380
E00380
E00380
E00380
E00380
E00380
E00380
E00380
FFFF80
7FFF80
3FFF80
000380
000380
00FF80
00FF00
00FE00
ENDCHAR
STARTCHAR 0100
ENCODING 256
SWIDTH 1041 0
DWIDTH 25 0
BBX 24 22 0 0
BITMAP
03FFE0
03FFE0
03FFE0
000000
000000
001C00
003E00
007F00
007F00
00F780
01E3C0
01E3C0
03C1E0
0781E0
0780F0
0FFFF8
0FFFF8
1FFFFC
3C003C
3C001E
78000F
F8000F
ENDCHAR
STARTCHAR 0101
ENCODING 257
SWIDTH 833 0
DWIDTH 20 0
BBX 17 19 1 0
BITMAP
1FFF00
1FFF00
1FFF00
000000
000000
000000
00FE00
00FF00
00FF80
000380
000380
3FFF80
FFFF80
FFFF80
E00380
E00380
FFFF80
FFFF00
3FFE00
ENDCHAR
STARTCHAR 0102
ENCODING 258
SWIDTH 1041 0
DWIDTH 25 0
BBX 24 23 0 0
BITMAP
018180
018180
01FF80
01FF80
00FF00
000000
001C00
003E00
007F00
007F00
00F780
01E3C0
01E3C0
03C1E0
0781E0
0780F0
0FFFF8
0FFFF8
1FFFFC
3C003C
3C001E
78000F
F8000F
ENDCHAR
STARTCHAR 0103
ENCODING 259
SWIDTH 833 0
DWIDTH 20 0
BBX 17 20 1 0
BITMAP
0C0C00
0C0C00
0FFC00
0FFC00
07F800
000000
000000
00FE00
00FF00
00FF80
000380
000380
3FFF80
FFFF80
FFFF80
E00380
E00380
FFFF80
FFFF00
3FFE00
ENDCHAR
STARTCHAR 0104
ENCODING 260
SWIDTH 1041 0
DWIDTH 25 0
BBX 25 23 1 -6
BITMAP
00380000
007C0000
00FE0000
00FF0000
01EF0000
01C78000
03C78000
0783C000
0703E000
0F01E000
1FFFF000
1FFFF800
3FFFF800
3C003C00
78003C00
F8001E00
F0001F00
00001C00
00003800
00003800
00003F80
00003F80
00001F80
ENDCHAR
STARTCHAR 0105
ENCODING 261
SWIDTH 833 0
DWIDTH 20 0
BBX 18 19 1 -6
BITMAP
007F00
007F80
007FC0
0001C0
0001C0
3FFFC0
FFFFC0
FFFFC0
E001C0
E001C0
FFFFC0
FFFF80
3FFE00
00C000
038000
038000
03F800
03F800
01F800
ENDCHAR
STARTCHAR 0106
ENCODING 262
SWIDTH 833 0
DWIDTH 20 0
BBX 17 23 2 0
BITMAP
00F000
00E000
01C000
03C000
038000
000000
000000
3FFF80
7FFF80
FFFF80
F00000
E00000
E00000
E00000
E00000
E00000
E00000
E00000
E00000
F00000
FFFF80
7FFF80
3FFF80
ENDCHAR
STARTCHAR 0107
ENCODING 263
SWIDTH 750 0
DWIDTH 18 0
BBX 15 20 2 0
BITMAP
01E0
01C0
0380
0780
0700
0000
0000
3FFE
7FFE
FFFE
F000
E000
E000
E000
E000
E000
F000
FFFE
7FFE
3FFE
ENDCHAR
STARTCHAR 010A
ENCODING 266
SWIDTH 833 0
DWIDTH 20 0
BBX 17 20 2 0
BITMAP
00E000
00E000
00E000
000000
3FFF80
7FFF80
FFFF80
F00000
E00000
E00000
E00000
E00000
E00000
E00000
E00000
E00000
F00000
FFFF80
7FFF80
3FFF80
ENDCHAR
STARTCHAR 010B
ENCODING 267
SWIDTH 750 0
DWIDTH 18 0
BBX 15 17 2 0
BITMAP
01C0
01C0
01C0
0000
3FFE
7FFE
FFFE
F000
E000
E000
E000
E000
E000
F000
FFFE
7FFE
3FFE
ENDCHAR
STARTCHAR 010C
ENCODING 268
SWIDTH 833 0
DWIDTH 20 0
BBX 17 23 2 0
BITMAP
1C1C00
0E3C00
0F7800
07F000
03E000
01C000
000000
3FFF80
7FFF80
FFFF80
F00000
E00000
E00000
E00000
E00000
E00000
E00000
E00000
E00000
F00000
FFFF80
7FFF80
3FFF80
ENDCHAR
STARTCHAR 010D
ENCODING 269
SWIDTH 750 0
DWIDTH 18 0
BBX 15 20 2 0
BITMAP
3838
1C78
1EF0
0FE0
07C0
0380
0000
3FFE
7FFE
FFFE
F000
E000
E000
E000
E000
E000
F000
FFFE
7FFE
3FFE
ENDCHAR
STARTCHAR 010E
ENCODING 270
SWIDTH 916 0
DWIDTH 22 0
BBX 19 23 1 0
BITMAP
0E0E00
071E00
07BC00
03F800
01F000
00E000
000000
FFFF00
FFFFC0
FFFFE0
E001E0
E000E0
E000E0
E000E0
E000E0
E000E0
E000E0
E000E0
E000E0
E001E0
FFFFE0
FFFFC0
FFFF00
ENDCHAR
STARTCHAR 010F
ENCODING 271
SWIDTH 1000 0
DWIDTH 24 0
BBX 23 17 1 0
BITMAP
00039E
00039E
00039C
00039C
1FFF9C
7FFF9C
FFFF80
F00380
E00380
E00380
E00380
E00380
E00380
F00780
FFFF80
7FFF00
1FFC00
ENDCHAR
STARTCHAR 0110
ENCODING 272
SWIDTH 958 0
DWIDTH 23 0
BBX 21 16 0 0
BITMAP
3FFFC0
3FFFF0
3FFFF8
380078
380038
380038
FFF038
FFF038
FFF038
380038
380038
380038
380078
3FFFF8
3FFFF0
3FFFC0
ENDCHAR
STARTCHAR 0111
ENCODING 273
SWIDTH 791 0
DWIDTH 19 0
BBX 18 17 1 0
BITMAP
03FFC0
03FFC0
03FFC0
000380
1FFF80
7FFF80
FFFF80
F00380
E00380
E00380
E00380
E00380
E00380
F00780
FFFF80
7FFF00
1FFC00
ENDCHAR
STARTCHAR 0112
ENCODING 274
SWIDTH 833 0
DWIDTH 20 0
BBX 17 22 2 0
BITMAP
3FFE00
3FFE00
3FFE00
000000
000000
000000
3FC000
7FC000
FFC000
E00000
E00000
E00000
FFFF80
FFFF80
FFFF80
E00000
E00000
E00000
F00000
FFFF80
7FFF80
3FFF80
ENDCHAR
STARTCHAR 0113
ENCODING 275
SWIDTH 791 0
DWIDTH 19 0
BBX 17 19 1 0
BITMAP
3FFE00
3FFE00
3FFE00
000000
000000
000000
3FFE00
7FFF00
FFFF80
E00380
E00380
FFFF80
FFFF80
FFFF80
E00000
E00000
FF8000
7F8000
3F8000
ENDCHAR
STARTCHAR 0114
ENCODING 276
SWIDTH 833 0
DWIDTH 20 0
BBX 17 23 2 0
BITMAP
181800
181800
1FF800
1FF800
0FF000
000000
000000
3FC000
7FC000
FFC000
E00000
E00000
E00000
FFFF80
FFFF80
FFFF80
E00000
E00000
E00000
F00000
FFFF80
7FFF80
3FFF80
ENDCHAR
STARTCHAR 0115
ENCODING 277
SWIDTH 791 0
DWIDTH 19 0
BBX 17 20 1 0
BITMAP
181800
181800
1FF800
1FF800
0FF000
000000
000000
3FFE00
7FFF00
FFFF80
E00380
E00380
FFFF80
FFFF80
FFFF80
E00000
E00000
FF8000
7F8000
3F8000
ENDCHAR
STARTCHAR 0116
ENCODING 278
SWIDTH 833 0
DWIDTH 20 0
BBX 17 20 2 0
BITMAP
00E000
00E000
00E000
000000
3FC000
7FC000
FFC000
E00000
E00000
E00000
FFFF80
FFFF80
FFFF80
E00000
E00000
E00000
F00000
FFFF80
7FFF80
3FFF80
ENDCHAR
STARTCHAR 0117
ENCODING 279
SWIDTH 791 0
DWIDTH 19 0
BBX 17 17 1 0
BITMAP
00E000
00E000
00E000
000000
3FFE00
7FFF00
FFFF80
E00380
E00380
FFFF80
FFFF80
FFFF80
E00000
E00000
FF8000
7F8000
3F8000
ENDCHAR
STARTCHAR 0118
ENCODING 280
SWIDTH 833 0
DWIDTH 20 0
BBX 19 22 1 -6
BITMAP
3FC000
7FC000
FFC000
E00000
E00000
E00000
FFFF80
FFFF80
FFFF80
E00000
E00000
E00000
F00000
FFFFC0
7FFFC0
1FFFC0
000700
000E00
000E00
000FE0
000FE0
0007E0
ENDCHAR
STARTCHAR 0119
ENCODING 281
SWIDTH 791 0
DWIDTH 19 0
BBX 16 19 2 -6
BITMAP
3FFC
7FFE
FFFF
E007
E007
FFFF
FFFF
FFFF
E000
E000
FF80
7F80
3F80
0600
1C00
1C00
1FC0
1FC0
0FC0
ENDCHAR
STARTCHAR 011A
ENCODING 282
SWIDTH 833 0
DWIDTH 20 0
BBX 17 23 2 0
BITMAP
1C1C00
0E3C00
0F7800
07F000
03E000
01C000
000000
3FC000
7FC000
FFC000
E00000
E00000
E00000
FFFF80
FFFF80
FFFF80
E00000
E00000
E00000
F00000
FFFF80
7FFF80
3FFF80
ENDCHAR
STARTCHAR 011B
ENCODING 283
SWIDTH 791 0
DWIDTH 19 0
BBX 17 20 1 0
BITMAP
1C1C00
0E3C00
0F7800
07F000
03E000
01C000
000000
3FFE00
7FFF00
FFFF80
E00380
E00380
FFFF80
FFFF80
FFFF80
E00000
E00000
FF8000
7F8000
3F8000
ENDCHAR
STARTCHAR 011E
ENCODING 286
SWIDTH 875 0
DWIDTH 21 0
BBX 19 23 1 0
BITMAP
0C0C00
0C0C00
0FFC00
0FFC00
07F800
000000
000000
3FC000
7FC000
FFC000
F00000
E00000
E00000
E000E0
E000E0
E000E0
E000E0
E000E0
E000E0
F001E0
FFFFE0
7FFFC0
1FFF00
ENDCHAR
STARTCHAR 011F
ENCODING 287
SWIDTH 833 0
DWIDTH 20 0
BBX 17 24 1 -4
BITMAP
181800
181800
1FF800
1FF800
0FF000
000000
000000
3FFE00
7FFF00
FFFF80
E00780
E00380
E00380
E00380
E00380
E00380
FFFF80
7FFF80
3FFF80
000380
000380
00FF80
00FF00
00FE00
ENDCHAR
STARTCHAR 0120
ENCODING 288
SWIDTH 875 0
DWIDTH 21 0
BBX 19 20 1 0
BITMAP
007000
007000
007000
000000
3FC000
7FC000
FFC000
F00000
E00000
E00000
E000E0
E000E0
E000E0
E000E0
E000E0
E000E0
F001E0
FFFFE0
7FFFC0
1FFF00
ENDCHAR
STARTCHAR 0121
ENCODING 289
SWIDTH 833 0
DWIDTH 20 0
BBX 17 21 1 -4
BITMAP
00E000
00E000
00E000
000000
3FFE00
7FFF00
FFFF80
E00780
E00380
E00380
E00380
E00380
E00380
FFFF80
7FFF80
3FFF80
000380
000380
00FF80
00FF00
00FE00
ENDCHAR
STARTCHAR 0122
ENCODING 290
SWIDTH 875 0
DWIDTH 21 0
BBX 19 21 1 -5
BITMAP
3FC000
7FC000
FFC000
F00000
E00000
E00000
E000E0
E000E0
E000E0
E000E0
E000E0
E000E0
F001E0
FFFFE0
7FFFC0
1FFF00
00E000
00E000
00E000
00C000
01C000
ENDCHAR
STARTCHAR 0123
ENCODING 291
SWIDTH 833 0
DWIDTH 20 0
BBX 17 23 1 -4
BITMAP
00E000
00C000
01C000
01C000
01C000
000000
3FFE00
7FFF00
FFFF80
E00780
E00380
E00380
E00380
E00380
E00380
FFFF80
7FFF80
3FFF80
000380
000380
00FF80
00FF00
00FE00
ENDCHAR
STARTCHAR 0126
ENCODING 294
SWIDTH 875 0
DWIDTH 21 0
BBX 19 16 1 0
BITMAP
E000E0
E000E0
FFFFE0
FFFFE0
FFFFE0
E000E0
FFFFE0
FFFFE0
FFFFE0
E000E0
E000E0
E000E0
E000E0
E000E0
E000E0
E000E0
ENDCHAR
STARTCHAR 0127
ENCODING 295
SWIDTH 791 0
DWIDTH 19 0
BBX 18 17 0 0
BITMAP
FFF000
FFF000
FFF000
700000
7FFE00
7FFF80
7FFFC0
7003C0
7001C0
7001C0
7001C0
7001C0
7001C0
7001C0
7001C0
7001C0
7001C0
ENDCHAR
STARTCHAR 012A
ENCODING 298
SWIDTH 291 0
DWIDTH 7 0
BBX 13 22 -3 0
BITMAP
FFF8
FFF8
FFF8
0000
0000
0000
0700
0700
0700
0700
0700
0700
0700
0700
0700
0700
0700
0700
0700
0700
0700
0700
ENDCHAR
STARTCHAR 012B
ENCODING 299
SWIDTH 416 0
DWIDTH 10 0
BBX 13 19 -2 0
BITMAP
FFF8
FFF8
FFF8
0000
0000
0000
0380
0380
0380
0380
0380
0380
0380
0380
0380
0380
0380
0380
0380
ENDCHAR
STARTCHAR 012C
ENCODING 300
SWIDTH 291 0
DWIDTH 7 0
BBX 10 23 -2 0
BITMAP
C0C0
C0C0
FFC0
FFC0
7F80
0000
0000
0E00
0E00
0E00
0E00
0E00
0E00
0E00
0E00
0E00
0E00
0E00
0E00
0E00
0E00
0E00
0E00
ENDCHAR
STARTCHAR 012D
ENCODING 301
SWIDTH 291 0
DWIDTH 7 0
BBX 10 20 -2 0
BITMAP
C0C0
C0C0
FFC0
FFC0
7F80
0000
0000
0E00
0E00
0E00
0E00
0E00
0E00
0E00
0E00
0E00
0E00
0E00
0E00
0E00
ENDCHAR
STARTCHAR 012E
ENCODING 302
SWIDTH 208 0
DWIDTH 5 0
BBX 7 22 -1 -6
BITMAP
38
38
38
38
38
38
38
38
38
38
38
38
38
38
38
38
70
E0
E0
FE
FE
7E
ENDCHAR
STARTCHAR 012F
ENCODING 303
SWIDTH 208 0
DWIDTH 5 0
BBX 7 23 -1 -6
BITMAP
38
38
38
00
38
38
38
38
38
38
38
38
38
38
38
38
38
70
E0
E0
FE
FE
7E
ENDCHAR
STARTCHAR 0130
ENCODING 304
SWIDTH 291 0
DWIDTH 7 0
BBX 3 20 2 0
BITMAP
E0
E0
E0
00
E0
E0
E0
E0
E0
E0
E0
E0
E0
E0
E0
E0
E0
E0
E0
E0
ENDCHAR
STARTCHAR 0131
ENCODING 305
SWIDTH 250 0
DWIDTH 6 0
BBX 3 13 2 0
BITMAP
E0
E0
E0
E0
E0
E0
E0
E0
E0
E0
E0
E0
E0
ENDCHAR
STARTCHAR 0132
ENCODING 306
SWIDTH 791 0
DWIDTH 19 0
BBX 16 16 2 0
BITMAP
E007
E007
E007
E007
E007
E007
E007
E007
E007
E007
E007
E007
E00F
E3FF
E3FE
E3FC
ENDCHAR
STARTCHAR 0133
ENCODING 307
SWIDTH 541 0
DWIDTH 13 0
BBX 9 21 2 -4
BITMAP
E380
E380
E380
0000
E380
E380
E380
E380
E380
E380
E380
E380
E380
E380
E380
E380
E380
0380
1F80
1F00
1E00
ENDCHAR
STARTCHAR 0136
ENCODING 310
SWIDTH 791 0
DWIDTH 19 0
BBX 17 21 2 -5
BITMAP
E01F00
E03E00
E07C00
E0F800
E1E000
E7C000
EF8000
FF0000
FF0000
E78000
E3E000
E1F000
E0F800
E07C00
E03E00
E00F80
038000
038000
038000
030000
070000
ENDCHAR
STARTCHAR 0137
ENCODING 311
SWIDTH 750 0
DWIDTH 18 0
BBX 15 22 2 -5
BITMAP
E000
E000
E000
E000
E03E
E078
E0F0
E3E0
E780
EF00
FE00
EF80
E7C0
E3E0
E1F0
E07C
E03E
0700
0700
0700
0600
0E00
ENDCHAR
STARTCHAR 0139
ENCODING 313
SWIDTH 750 0
DWIDTH 18 0
BBX 16 23 2 0
BITMAP
3C00
3800
7000
F000
E000
0000
0000
E000
E000
E000
E000
E000
E000
E000
E000
E000
E000
E000
E000
F000
FFFF
7FFF
3FFF
ENDCHAR
STARTCHAR 013A
ENCODING 314
SWIDTH 250 0
DWIDTH 6 0
BBX 6 23 2 0
BITMAP
3C
38
70
F0
E0
00
E0
E0
E0
E0
E0
E0
E0
E0
E0
E0
E0
E0
E0
E0
E0
E0
E0
ENDCHAR
STARTCHAR 013B
ENCODING 315
SWIDTH 750 0
DWIDTH 18 0
BBX 16 21 2 -5
BITMAP
E000
E000
E000
E000
E000
E000
E000
E000
E000
E000
E000
E000
F000
FFFF
7FFF
3FFF
0380
0380
0380
0300
0700
ENDCHAR
STARTCHAR 013C
ENCODING 316
SWIDTH 250 0
DWIDTH 6 0
BBX 4 22 1 -5
BITMAP
70
70
70
70
70
70
70
70
70
70
70
70
70
70
70
70
70
70
70
70
60
E0
ENDCHAR
STARTCHAR 013D
ENCODING 317
SWIDTH 750 0
DWIDTH 18 0
BBX 16 17 2 0
BITMAP
01E0
E1E0
E1C0
E1C0
E1C0
E1C0
E000
E000
E000
E000
E000
E000
E000
F000
FFFF
7FFF
3FFF
ENDCHAR
STARTCHAR 013E
ENCODING 318
SWIDTH 416 0
DWIDTH 10 0
BBX 8 17 2 0
BITMAP
EF
EF
EE
EE
EE
EE
E0
E0
E0
E0
E0
E0
E0
E0
E0
E0
E0
ENDCHAR
STARTCHAR 013F
ENCODING 319
SWIDTH 750 0
DWIDTH 18 0
BBX 16 16 2 0
BITMAP
E000
E000
E000
E000
E000
E0E0
E0E0
E0E0
E000
E000
E000
E000
F000
FFFF
7FFF
3FFF
ENDCHAR
STARTCHAR 0140
ENCODING 320
SWIDTH 416 0
DWIDTH 10 0
BBX 8 17 2 0
BITMAP
E0
E0
E0
E0
E0
E0
E0
E7
E7
E7
E0
E0
E0
E0
E0
E0
E0
ENDCHAR
STARTCHAR 0141
ENCODING 321
SWIDTH 791 0
DWIDTH 19 0
BBX 18 16 0 0
BITMAP
380000
380000
387000
3FF000
FFF000
FF0000
F80000
380000
380000
380000
380000
380000
3C0000
3FFFC0
1FFFC0
0FFFC0
ENDCHAR
STARTCHAR 0142
ENCODING 322
SWIDTH 333 0
DWIDTH 8 0
BBX 7 17 0 0
BITMAP
38
38
38
38
3E
FE
FE
B8
38
38
38
38
38
38
38
38
38
ENDCHAR
STARTCHAR 0143
ENCODING 323
SWIDTH 916 0
DWIDTH 22 0
BBX 19 23 1 0
BITMAP
003C00
003800
007000
00F000
00E000
000000
F00000
F800E0
FC00E0
FE00E0
FF00E0
FF80E0
E7C0E0
E3E0E0
E1F0E0
E0F8E0
E07CE0
E03EE0
E01FE0
E00FE0
E007E0
E003E0
E001E0
ENDCHAR
STARTCHAR 0144
ENCODING 324
SWIDTH 833 0
DWIDTH 20 0
BBX 17 20 1 0
BITMAP
007800
007000
00E000
01E000
01C000
000000
000000
1FFC00
7FFF00
FFFF80
F00780
E00380
E00380
E00380
E00380
E00380
E00380
E00380
E00380
E00380
ENDCHAR
STARTCHAR 0145
ENCODING 325
SWIDTH 916 0
DWIDTH 22 0
BBX 19 22 1 -5
BITMAP
F00000
F800E0
FC00E0
FE00E0
FF00E0
FF80E0
E7C0E0
E3E0E0
E1F0E0
E0F8E0
E07CE0
E03EE0
E01FE0
E00FE0
E007E0
E003E0
E001E0
007000
007000
007000
006000
00E000
ENDCHAR
STARTCHAR 0146
ENCODING 326
SWIDTH 833 0
DWIDTH 20 0
BBX 17 18 1 -5
BITMAP
1FFC00
7FFF00
FFFF80
F00780
E00380
E00380
E00380
E00380
E00380
E00380
E00380
E00380
E00380
01C000
01C000
01C000
018000
038000
ENDCHAR
STARTCHAR 0147
ENCODING 327
SWIDTH 916 0
DWIDTH 22 0
BBX 19 23 1 0
BITMAP
0E0E00
071E00
07BC00
03F800
01F000
00E000
F00000
F800E0
FC00E0
FE00E0
FF00E0
FF80E0
E7C0E0
E3E0E0
E1F0E0
E0F8E0
E07CE0
E03EE0
E01FE0
E00FE0
E007E0
E003E0
E001E0
ENDCHAR
STARTCHAR 0148
ENCODING 328
SWIDTH 833 0
DWIDTH 20 0
BBX 17 20 1 0
BITMAP
1C1C00
0E3C00
0F7800
07F000
03E000
01C000
000000
1FFC00
7FFF00
FFFF80
F00780
E00380
E00380
E00380
E00380
E00380
E00380
E00380
E00380
E00380
ENDCHAR
STARTCHAR 014A
ENCODING 330
SWIDTH 875 0
DWIDTH 21 0
BBX 19 22 1 -5
BITMAP
F00000
F800E0
FC00E0
FE00E0
FF00E0
FF80E0
EFC0E0
E7E0E0
E1F0E0
E0F8E0
E07CE0
E03EE0
E01FE0
E00FE0
E007E0
E003E0
E001E0
0000E0
0000E0
0007E0
0007C0
000780
ENDCHAR
STARTCHAR 014B
ENCODING 331
SWIDTH 791 0
DWIDTH 19 0
BBX 17 18 1 -5
BITMAP
1FFC00
7FFF00
FFFF80
F00780
E00380
E00380
E00380
E00380
E00380
E00380
E00380
E00380
E00380
000380
000380
001F80
001F00
001E00
ENDCHAR
STARTCHAR 014C
ENCODING 332
SWIDTH 875 0
DWIDTH 21 0
BBX 18 22 1 0
BITMAP
1FFF00
1FFF00
1FFF00
000000
000000
000000
1FFE00
7FFF80
FFFFC0
F003C0
E001C0
E001C0
E001C0
E001C0
E001C0
E001C0
E001C0
E001C0
F003C0
FFFFC0
7FFF80
1FFE00
ENDCHAR
STARTCHAR 014D
ENCODING 333
SWIDTH 791 0
DWIDTH 19 0
BBX 17 19 1 0
BITMAP
3FFE00
3FFE00
3FFE00
000000
000000
000000
1FFC00
7FFF00
FFFF80
F00780
E00380
E00380
E00380
E00380
E00380
F00780
FFFF80
7FFF00
1FFC00
ENDCHAR
STARTCHAR 014E
ENCODING 334
SWIDTH 875 0
DWIDTH 21 0
BBX 18 23 1 0
BITMAP
0C0C00
0C0C00
0FFC00
0FFC00
07F800
000000
000000
1FFE00
7FFF80
FFFFC0
F003C0
E001C0
E001C0
E001C0
E001C0
E001C0
E001C0
E001C0
E001C0
F003C0
FFFFC0
7FFF80
1FFE00
ENDCHAR
STARTCHAR 014F
ENCODING 335
SWIDTH 791 0
DWIDTH 19 0
BBX 17 20 1 0
BITMAP
181800
181800
1FF800
1FF800
0FF000
000000
000000
1FFC00
7FFF00
FFFF80
F00780
E00380
E00380
E00380
E00380
E00380
F00780
FFFF80
7FFF00
1FFC00
ENDCHAR
STARTCHAR 0150
ENCODING 336
SWIDTH 875 0
DWIDTH 21 0
BBX 18 23 1 0
BITMAP
01E380
01C780
038F00
078E00
071C00
000000
000000
1FFE00
7FFF80
FFFFC0
F003C0
E001C0
E001C0
E001C0
E001C0
E001C0
E001C0
E001C0
E001C0
F003C0
FFFFC0
7FFF80
1FFE00
ENDCHAR
STARTCHAR 0151
ENCODING 337
SWIDTH 791 0
DWIDTH 19 0
BBX 17 20 1 0
BITMAP
03C700
038F00
071E00
0F1C00
0E3800
000000
000000
1FFC00
7FFF00
FFFF80
F00780
E00380
E00380
E00380
E00380
E00380
F00780
FFFF80
7FFF00
1FFC00
ENDCHAR
STARTCHAR 0152
ENCODING 338
SWIDTH 1458 0
DWIDTH 35 0
BBX 32 16 1 0
BITMAP
1FFE7F00
7FFFFF00
FFFFFF00
F003C000
E001C000
E001C000
E001FFFF
E001FFFF
E001FFFF
E001C000
E001C000
E001C000
F003E000
FFFFFFFF
7FFFFFFF
1FFE7FFF
ENDCHAR
STARTCHAR 0153
ENCODING 339
SWIDTH 1333 0
DWIDTH 32 0
BBX 29 13 2 0
BITMAP
1FFDFFE0
7FFFFFF0
FFFFFFF8
F00F0038
E0070038
E007FFF8
E007FFF8
E007FFF8
E0070000
F00F0000
FFFFFC00
7FFFFC00
1FF9FC00
ENDCHAR
STARTCHAR 0154
ENCODING 340
SWIDTH 916 0
DWIDTH 22 0
BBX 19 23 1 0
BITMAP
003C00
003800
007000
00F000
00E000
000000
000000
FFFF80
FFFFC0
FFFFE0
E001E0
E000E0
E000E0
E000E0
E001E0
FFFFE0
FFFFC0
FFFF80
E7E000
E1F800
E0FE00
E03F00
E00FC0
ENDCHAR
STARTCHAR 0155
ENCODING 341
SWIDTH 458 0
DWIDTH 11 0
BBX 9 20 2 0
BITMAP
0780
0700
0E00
1E00
1C00
0000
0000
3F00
7F00
FF00
F000
E000
E000
E000
E000
E000
E000
E000
E000
E000
ENDCHAR
STARTCHAR 0156
ENCODING 342
SWIDTH 916 0
DWIDTH 22 0
BBX 19 21 1 -5
BITMAP
FFFF80
FFFFC0
FFFFE0
E001E0
E000E0
E000E0
E000E0
E001E0
FFFFE0
FFFFC0
FFFF80
E7E000
E1F800
E0FE00
E03F00
E00FC0
007000
007000
007000
006000
00E000
ENDCHAR
STARTCHAR 0157
ENCODING 343
SWIDTH 458 0
DWIDTH 11 0
BBX 9 18 1 -5
BITMAP
1F80
3F80
7F80
7800
7000
7000
7000
7000
7000
7000
7000
7000
7000
7000
7000
7000
6000
E000
ENDCHAR
STARTCHAR 0158
ENCODING 344
SWIDTH 916 0
DWIDTH 22 0
BBX 19 23 1 0
BITMAP
0E0E00
071E00
07BC00
03F800
01F000
00E000
000000
FFFF80
FFFFC0
FFFFE0
E001E0
E000E0
E000E0
E000E0
E001E0
FFFFE0
FFFFC0
FFFF80
E7E000
E1F800
E0FE00
E03F00
E00FC0
ENDCHAR
STARTCHAR 0159
ENCODING 345
SWIDTH 458 0
DWIDTH 11 0
BBX 11 20 1 0
BITMAP
E0E0
71E0
7BC0
3F80
1F00
0E00
0000
1F80
3F80
7F80
7800
7000
7000
7000
7000
7000
7000
7000
7000
7000
ENDCHAR
STARTCHAR 015A
ENCODING 346
SWIDTH 791 0
DWIDTH 19 0
BBX 17 23 1 0
BITMAP
007800
007000
00E000
01E000
01C000
000000
000000
3F8000
7F8000
FF8000
E00000
E00000
E00000
FFFE00
FFFF00
3FFF80
000380
000380
000380
000380
FFFF80
FFFF00
FFFE00
ENDCHAR
STARTCHAR 015B
ENCODING 347
SWIDTH 750 0
DWIDTH 18 0
BBX 15 20 1 0
BITMAP
00F0
00E0
01C0
03C0
0380
0000
0000
7F00
FF00
FF00
E000
E000
FFFC
FFFE
7FFE
000E
000E
FFFE
FFFE
FFFC
ENDCHAR
STARTCHAR 015E
ENCODING 350
SWIDTH 791 0
DWIDTH 19 0
BBX 17 21 1 -5
BITMAP
3F8000
7F8000
FF8000
E00000
E00000
E00000
FFFE00
FFFF00
3FFF80
000380
000380
000380
000380
FFFF80
FFFF00
FFFE00
01C000
01C000
01C000
018000
038000
ENDCHAR
STARTCHAR 015F
ENCODING 351
SWIDTH 750 0
DWIDTH 18 0
BBX 15 18 1 -5
BITMAP
7F00
FF00
FF00
E000
E000
FFFC
FFFE
7FFE
000E
000E
FFFE
FFFE
FFFC
01C0
01C0
01C0
0180
0380
ENDCHAR
STARTCHAR 0160
ENCODING 352
SWIDTH 791 0
DWIDTH 19 0
BBX 17 23 1 0
BITMAP
1C1C00
0E3C00
0F7800
07F000
03E000
01C000
000000
3F8000
7F8000
FF8000
E00000
E00000
E00000
FFFE00
FFFF00
3FFF80
000380
000380
000380
000380
FFFF80
FFFF00
FFFE00
ENDCHAR
STARTCHAR 0161
ENCODING 353
SWIDTH 750 0
DWIDTH 18 0
BBX 15 20 1 0
BITMAP
3838
1C78
1EF0
0FE0
07C0
0380
0000
7F00
FF00
FF00
E000
E000
FFFC
FFFE
7FFE
000E
000E
FFFE
FFFE
FFFC
ENDCHAR
STARTCHAR 0162
ENCODING 354
SWIDTH 750 0
DWIDTH 18 0
BBX 17 21 1 -5
BITMAP
FFFF80
FFFF80
FFFF80
01C000
01C000
01C000
01C000
01C000
01C000
01C000
01C000
01C000
01C000
01C000
01C000
01C000
01C000
01C000
01C000
018000
038000
ENDCHAR
STARTCHAR 0163
ENCODING 355
SWIDTH 416 0
DWIDTH 10 0
BBX 9 22 0 -5
BITMAP
3800
3800
3800
3800
FF80
FF80
FF80
3800
3800
3800
3800
3800
3800
3800
3800
3800
3800
3800
3800
3800
3000
7000
ENDCHAR
STARTCHAR 0164
ENCODING 356
SWIDTH 750 0
DWIDTH 18 0
BBX 17 23 1 0
BITMAP
1C1C00
0E3C00
0F7800
07F000
03E000
01C000
000000
FFFF80
FFFF80
FFFF80
01C000
01C000
01C000
01C000
01C000
01C000
01C000
01C000
01C000
01C000
01C000
01C000
01C000
ENDCHAR
STARTCHAR 0165
ENCODING 357
SWIDTH 583 0
DWIDTH 14 0
BBX 14 17 0 0
BITMAP
383C
383C
3838
3838
FFB8
FFB8
FF80
3800
3800
3800
3800
3800
3800
3800
3800
3800
3800
ENDCHAR
STARTCHAR 0166
ENCODING 358
SWIDTH 750 0
DWIDTH 18 0
BBX 17 16 1 0
BITMAP
FFFF80
FFFF80
FFFF80
01C000
01C000
01C000
01C000
0FF800
0FF800
0FF800
01C000
01C000
01C000
01C000
01C000
01C000
ENDCHAR
STARTCHAR 0167
ENCODING 359
SWIDTH 416 0
DWIDTH 10 0
BBX 9 17 0 0
BITMAP
3800
3800
3800
3800
FF80
FF80
FF80
3800
3800
3800
7F80
7F80
7F80
3800
3800
3800
3800
ENDCHAR
STARTCHAR 0168
ENCODING 360
SWIDTH 875 0
DWIDTH 21 0
BBX 18 22 1 0
BITMAP
1FFF00
1FFF00
1FFF00
000000
000000
000000
E001C0
E001C0
E001C0
E001C0
E001C0
E001C0
E001C0
E001C0
E001C0
E001C0
E001C0
E001C0
F003C0
FFFFC0
7FFF80
1FFE00
ENDCHAR
STARTCHAR 0169
ENCODING 361
SWIDTH 791 0
DWIDTH 19 0
BBX 17 19 1 0
BITMAP
3FFE00
3FFE00
3FFE00
000000
000000
000000
E00380
E00380
E00380
E00380
E00380
E00380
E00380
E00380
E00380
F00780
FFFF80
7FFF00
1FFC00
ENDCHAR
STARTCHAR 016A
ENCODING 362
SWIDTH 875 0
DWIDTH 21 0
BBX 18 22 1 0
BITMAP
1FFF00
1FFF00
1FFF00
000000
000000
000000
E001C0
E001C0
E001C0
E001C0
E001C0
E001C0
E001C0
E001C0
E001C0
E001C0
E001C0
E001C0
F003C0
FFFFC0
7FFF80
1FFE00
ENDCHAR
STARTCHAR 016B
ENCODING 363
SWIDTH 791 0
DWIDTH 19 0
BBX 17 19 1 0
BITMAP
3FFE00
3FFE00
3FFE00
000000
000000
000000
E00380
E00380
E00380
E00380
E00380
E00380
E00380
E00380
E00380
F00780
FFFF80
7FFF00
1FFC00
ENDCHAR
STARTCHAR 016C
ENCODING 364
SWIDTH 875 0
DWIDTH 21 0
BBX 18 23 1 0
BITMAP
0C0C00
0C0C00
0FFC00
0FFC00
07F800
000000
000000
E001C0
E001C0
E001C0
E001C0
E001C0
E001C0
E001C0
E001C0
E001C0
E001C0
E001C0
E001C0
F003C0
FFFFC0
7FFF80
1FFE00
ENDCHAR
STARTCHAR 016D
ENCODING 365
SWIDTH 791 0
DWIDTH 19 0
BBX 17 20 1 0
BITMAP
181800
181800
1FF800
1FF800
0FF000
000000
000000
E00380
E00380
E00380
E00380
E00380
E00380
E00380
E00380
E00380
F00780
FFFF80
7FFF00
1FFC00
ENDCHAR
STARTCHAR 016E
ENCODING 366
SWIDTH 875 0
DWIDTH 21 0
BBX 18 23 1 0
BITMAP
03F800
07FC00
060C00
060C00
060C00
07FC00
03F800
E001C0
E001C0
E001C0
E001C0
E001C0
E001C0
E001C0
E001C0
E001C0
E001C0
E001C0
E001C0
F003C0
FFFFC0
7FFF80
1FFE00
ENDCHAR
STARTCHAR 016F
ENCODING 367
SWIDTH 791 0
DWIDTH 19 0
BBX 17 20 1 0
BITMAP
07F000
0FF800
0C1800
0C1800
0C1800
0FF800
07F000
E00380
E00380
E00380
E00380
E00380
E00380
E00380
E00380
E00380
F00780
FFFF80
7FFF00
1FFC00
ENDCHAR
STARTCHAR 0170
ENCODING 368
SWIDTH 875 0
DWIDTH 21 0
BBX 18 23 1 0
BITMAP
01E380
01C780
038F00
078E00
071C00
000000
000000
E001C0
E001C0
E001C0
E001C0
E001C0
E001C0
E001C0
E001C0
E001C0
E001C0
E001C0
E001C0
F003C0
FFFFC0
7FFF80
1FFE00
ENDCHAR
STARTCHAR 0171
ENCODING 369
SWIDTH 791 0
DWIDTH 19 0
BBX 17 20 1 0
BITMAP
03C700
038F00
071E00
0F1C00
0E3800
000000
000000
E00380
E00380
E00380
E00380
E00380
E00380
E00380
E00380
E00380
F00780
FFFF80
7FFF00
1FFC00
ENDCHAR
STARTCHAR 0172
ENCODING 370
SWIDTH 875 0
DWIDTH 21 0
BBX 18 22 2 -6
BITMAP
E001C0
E001C0
E001C0
E001C0
E001C0
E001C0
E001C0
E001C0
E001C0
E001C0
E001C0
E001C0
F003C0
FFFFC0
7FFF80
1FFE00
01C000
038000
038000
03F800
03F800
01F800
ENDCHAR
STARTCHAR 0173
ENCODING 371
SWIDTH 791 0
DWIDTH 19 0
BBX 16 19 2 -6
BITMAP
E007
E007
E007
E007
E007
E007
E007
E007
E007
F00F
FFFF
7FFE
1FFC
0380
0700
0700
07F0
07F0
03F0
ENDCHAR
STARTCHAR 0174
ENCODING 372
SWIDTH 1333 0
DWIDTH 32 0
BBX 32 23 0 0
BITMAP
0001C000
0003E000
0007F000
000F7800
000E3C00
001C1C00
0001C001
F003C00F
7807E01E
7807E01E
3C07F03C
3C0FF03C
1E0E7838
1E1E7878
0E1C3870
0F3C3CF0
0F381CF0
07F81FE0
07F80FE0
03F00FC0
03F00FC0
01E00780
01C00380
ENDCHAR
STARTCHAR 0175
ENCODING 373
SWIDTH 1083 0
DWIDTH 26 0
BBX 26 20 0 0
BITMAP
000E0000
001F0000
003F8000
007BC000
0071E000
00E0E000
00000000
F00E01C0
701E03C0
781F0380
383F0780
3C3F8700
1C7B8F00
1E73CE00
0EF1DE00
0FE1FC00
0FE0FC00
07C0F800
07C07800
03807000
ENDCHAR
STARTCHAR 0176
ENCODING 374
SWIDTH 958 0
DWIDTH 23 0
BBX 21 23 1 0
BITMAP
007000
00F800
01FC00
03DE00
038F00
070700
000000
F800F8
7C01F0
3E03E0
1F07C0
078F80
03DE00
01FC00
00F800
007000
007000
007000
007000
007000
007000
007000
007000
ENDCHAR
STARTCHAR 0177
ENCODING 375
SWIDTH 833 0
DWIDTH 20 0
BBX 17 24 1 -4
BITMAP
01C000
03E000
07F000
0F7800
0E3C00
1C1C00
000000
E00380
E00380
E00380
E00380
E00380
E00380
E00380
E00380
E00380
FFFF80
7FFF80
3FFF80
000380
000380
00FF80
00FF00
00FE00
ENDCHAR
STARTCHAR 0178
ENCODING 376
SWIDTH 958 0
DWIDTH 23 0
BBX 21 20 1 0
BITMAP
070E00
070E00
070E00
000000
F800F8
7C01F0
3E03E0
1F07C0
078F80
03DE00
01FC00
00F800
007000
007000
007000
007000
007000
007000
007000
007000
ENDCHAR
STARTCHAR 0179
ENCODING 377
SWIDTH 833 0
DWIDTH 20 0
BBX 18 23 1 0
BITMAP
003C00
003800
007000
00F000
00E000
000000
000000
FFFFC0
FFFFC0
FFFFC0
000F80
001F00
007E00
00F800
01F000
03E000
07C000
1F8000
3F0000
7C0000
FFFFC0
FFFFC0
FFFFC0
ENDCHAR
STARTCHAR 017A
ENCODING 378
SWIDTH 708 0
DWIDTH 17 0
BBX 15 20 1 0
BITMAP
00F0
00E0
01C0
03C0
0380
0000
0000
FFFC
FFFE
FFFC
0078
00F0
01C0
0780
0F00
1E00
3C00
FFFE
FFFE
FFFE
ENDCHAR
STARTCHAR 017B
ENCODING 379
SWIDTH 833 0
DWIDTH 20 0
BBX 18 20 1 0
BITMAP
00E000
00E000
00E000
000000
FFFFC0
FFFFC0
FFFFC0
000F80
001F00
007E00
00F800
01F000
03E000
07C000
1F8000
3F0000
7C0000
FFFFC0
FFFFC0
FFFFC0
ENDCHAR
STARTCHAR 017C
ENCODING 380
SWIDTH 708 0
DWIDTH 17 0
BBX 15 17 1 0
BITMAP
0380
0380
0380
0000
FFFC
FFFE
FFFC
0078
00F0
01C0
0780
0F00
1E00
3C00
FFFE
FFFE
FFFE
ENDCHAR
STARTCHAR 017D
ENCODING 381
SWIDTH 833 0
DWIDTH 20 0
BBX 18 23 1 0
BITMAP
0E0E00
071E00
07BC00
03F800
01F000
00E000
000000
FFFFC0
FFFFC0
FFFFC0
000F80
001F00
007E00
00F800
01F000
03E000
07C000
1F8000
3F0000
7C0000
FFFFC0
FFFFC0
FFFFC0
ENDCHAR
STARTCHAR 017E
ENCODING 382
SWIDTH 708 0
DWIDTH 17 0
BBX 15 20 1 0
BITMAP
3838
1C78
1EF0
0FE0
07C0
0380
0000
FFFC
FFFE
FFFC
0078
00F0
01C0
0780
0F00
1E00
3C00
FFFE
FFFE
FFFE
ENDCHAR
STARTCHAR 0192
ENCODING 402
SWIDTH 541 0
DWIDTH 13 0
BBX 12 20 1 -3
BITMAP
00F0
03F0
03F0
0780
0700
0700
0700
7FE0
7FE0
7FE0
0E00
0E00
0E00
0C00
1C00
1C00
3C00
F800
F800
E000
ENDCHAR
STARTCHAR 0218
ENCODING 536
SWIDTH 791 0
DWIDTH 19 0
BBX 17 21 1 -5
BITMAP
3F8000
7F8000
FF8000
E00000
E00000
E00000
FFFE00
FFFF00
3FFF80
000380
000380
000380
000380
FFFF80
FFFF00
FFFE00
01C000
01C000
01C000
018000
038000
ENDCHAR
STARTCHAR 0219
ENCODING 537
SWIDTH 750 0
DWIDTH 18 0
BBX 15 18 1 -5
BITMAP
7F00
FF00
FF00
E000
E000
FFFC
FFFE
7FFE
000E
000E
FFFE
FFFE
FFFC
01C0
01C0
01C0
0180
0380
ENDCHAR
STARTCHAR 021A
ENCODING 538
SWIDTH 750 0
DWIDTH 18 0
BBX 17 21 1 -5
BITMAP
FFFF80
FFFF80
FFFF80
01C000
01C000
01C000
01C000
01C000
01C000
01C000
01C000
01C000
01C000
01C000
01C000
01C000
01C000
01C000
01C000
018000
038000
ENDCHAR
STARTCHAR 021B
ENCODING 539
SWIDTH 416 0
DWIDTH 10 0
BBX 9 22 0 -5
BITMAP
3800
3800
3800
3800
FF80
FF80
FF80
3800
3800
3800
3800
3800
3800
3800
3800
3800
3800
3800
3800
3800
3000
7000
ENDCHAR
STARTCHAR 02C6
ENCODING 710
SWIDTH 625 0
DWIDTH 15 0
BBX 11 6 2 14
BITMAP
0E00
1F00
3F80
7BC0
71E0
E0E0
ENDCHAR
STARTCHAR 02C7
ENCODING 711
SWIDTH 625 0
DWIDTH 15 0
BBX 11 6 2 14
BITMAP
E0E0
71E0
7BC0
3F80
1F00
0E00
ENDCHAR
STARTCHAR 02D8
ENCODING 728
SWIDTH 500 0
DWIDTH 12 0
BBX 10 5 1 15
BITMAP
C0C0
C0C0
FFC0
FFC0
7F80
ENDCHAR
STARTCHAR 02D9
ENCODING 729
SWIDTH 250 0
DWIDTH 6 0
BBX 3 3 2 14
BITMAP
E0
E0
E0
ENDCHAR
STARTCHAR 02DA
ENCODING 730
SWIDTH 458 0
DWIDTH 11 0
BBX 9 7 1 13
BITMAP
7F00
FF80
C180
C180
C180
FF80
7F00
ENDCHAR
STARTCHAR 02DB
ENCODING 731
SWIDTH 416 0
DWIDTH 10 0
BBX 7 6 1 -6
BITMAP
78
E0
E0
FE
FE
7E
ENDCHAR
STARTCHAR 02DC
ENCODING 732
SWIDTH 666 0
DWIDTH 16 0
BBX 13 3 1 16
BITMAP
FFF8
FFF8
FFF8
ENDCHAR
STARTCHAR 02DD
ENCODING 733
SWIDTH 666 0
DWIDTH 16 0
BBX 12 5 2 15
BITMAP
3C70
38F0
71E0
F1C0
E380
ENDCHAR
STARTCHAR 0394
ENCODING 916
SWIDTH 1041 0
DWIDTH 25 0
BBX 24 17 0 0
BITMAP
001C00
003E00
007F00
007F00
00FF80
01F7C0
01E3C0
03C3E0
07C1E0
0780F0
0F80F8
0F0078
1E003C
3E003C
3FFFFE
7FFFFF
FFFFFF
ENDCHAR
STARTCHAR 039B
ENCODING 923
SWIDTH 1041 0
DWIDTH 25 0
BBX 24 17 0 0
BITMAP
001C00
003E00
007F00
00FF00
00FF80
01E780
01E3C0
03C3E0
07C1E0
0781F0
0F00F0
0F0078
1E007C
3E003C
3C003E
78001E
F8000F
ENDCHAR
STARTCHAR 03A9
ENCODING 937
SWIDTH 833 0
DWIDTH 20 0
BBX 18 16 1 0
BITMAP
3FFF00
7FFF80
FFFFC0
E001C0
E001C0
E001C0
E001C0
E001C0
E001C0
E00180
700380
380700
380600
FC0FC0
FC0FC0
FC0FC0
ENDCHAR
STARTCHAR 03BC
ENCODING 956
SWIDTH 791 0
DWIDTH 19 0
BBX 17 17 1 -4
BITMAP
E00380
E00380
E00380
E00380
E00380
E00380
E00380
E00380
E00380
E00780
FFFF80
FFFF00
FFFC00
E00000
E00000
E00000
E00000
ENDCHAR
STARTCHAR 03C0
ENCODING 960
SWIDTH 791 0
DWIDTH 19 0
BBX 17 13 1 0
BITMAP
FFFF80
FFFF80
FFFF80
E00380
E00380
E00380
E00380
E00380
E00380
E00380
E00380
E00380
E00380
ENDCHAR
STARTCHAR 1E80
ENCODING 7808
SWIDTH 1333 0
DWIDTH 32 0
BBX 32 23 0 0
BITMAP
000E0000
00070000
00078000
00038000
0001C000
00000000
0001C001
F003C00F
7807E01E
7807E01E
3C07F03C
3C0FF03C
1E0E7838
1E1E7878
0E1C3870
0F3C3CF0
0F381CF0
07F81FE0
07F80FE0
03F00FC0
03F00FC0
01E00780
01C00380
ENDCHAR
STARTCHAR 1E81
ENCODING 7809
SWIDTH 1083 0
DWIDTH 26 0
BBX 26 20 0 0
BITMAP
00700000
00380000
003C0000
001C0000
000E0000
00000000
00000000
F00E01C0
701E03C0
781F0380
383F0780
3C3F8700
1C7B8F00
1E73CE00
0EF1DE00
0FE1FC00
0FE0FC00
07C0F800
07C07800
03807000
ENDCHAR
STARTCHAR 1E82
ENCODING 7810
SWIDTH 1333 0
DWIDTH 32 0
BBX 32 23 0 0
BITMAP
00007800
00007000
0000E000
0001E000
0001C000
00000000
0001C001
F003C00F
7807E01E
7807E01E
3C07F03C
3C0FF03C
1E0E7838
1E1E7878
0E1C3870
0F3C3CF0
0F381CF0
07F81FE0
07F80FE0
03F00FC0
03F00FC0
01E00780
01C00380
ENDCHAR
STARTCHAR 1E83
ENCODING 7811
SWIDTH 1083 0
DWIDTH 26 0
BBX 26 20 0 0
BITMAP
0003C000
00038000
00070000
000F0000
000E0000
00000000
00000000
F00E01C0
701E03C0
781F0380
383F0780
3C3F8700
1C7B8F00
1E73CE00
0EF1DE00
0FE1FC00
0FE0FC00
07C0F800
07C07800
03807000
ENDCHAR
STARTCHAR 1E84
ENCODING 7812
SWIDTH 1333 0
DWIDTH 32 0
BBX 32 20 0 0
BITMAP
001C3800
001C3800
001C3800
0001C001
F003C00F
7807E01E
7807E01E
3C07F03C
3C0FF03C
1E0E7838
1E1E7878
0E1C3870
0F3C3CF0
0F381CF0
07F81FE0
07F80FE0
03F00FC0
03F00FC0
01E00780
01C00380
ENDCHAR
STARTCHAR 1E85
ENCODING 7813
SWIDTH 1083 0
DWIDTH 26 0
BBX 26 17 0 0
BITMAP
00E1C000
00E1C000
00E1C000
00000000
F00E01C0
701E03C0
781F0380
383F0780
3C3F8700
1C7B8F00
1E73CE00
0EF1DE00
0FE1FC00
0FE0FC00
07C0F800
07C07800
03807000
ENDCHAR
STARTCHAR 1EF2
ENCODING 7922
SWIDTH 958 0
DWIDTH 23 0
BBX 21 23 1 0
BITMAP
01C000
00E000
00F000
007000
003800
000000
000000
F800F8
7C01F0
3E03E0
1F07C0
078F80
03DE00
01FC00
00F800
007000
007000
007000
007000
007000
007000
007000
007000
ENDCHAR
STARTCHAR 1EF3
ENCODING 7923
SWIDTH 833 0
DWIDTH 20 0
BBX 17 24 1 -4
BITMAP
070000
038000
03C000
01C000
00E000
000000
000000
E00380
E00380
E00380
E00380
E00380
E00380
E00380
E00380
E00380
FFFF80
7FFF80
3FFF80
000380
000380
00FF80
00FF00
00FE00
ENDCHAR
STARTCHAR 2013
ENCODING 8211
SWIDTH 708 0
DWIDTH 17 0
BBX 15 3 1 6
BITMAP
FFFE
FFFE
FFFE
ENDCHAR
STARTCHAR 2014
ENCODING 8212
SWIDTH 958 0
DWIDTH 23 0
BBX 21 3 1 6
BITMAP
FFFFF8
FFFFF8
FFFFF8
ENDCHAR
STARTCHAR 2018
ENCODING 8216
SWIDTH 208 0
DWIDTH 5 0
BBX 4 6 1 11
BITMAP
E0
E0
70
70
70
70
ENDCHAR
STARTCHAR 2019
ENCODING 8217
SWIDTH 208 0
DWIDTH 5 0
BBX 4 6 1 11
BITMAP
F0
F0
E0
E0
E0
E0
ENDCHAR
STARTCHAR 201A
ENCODING 8218
SWIDTH 208 0
DWIDTH 5 0
BBX 4 6 1 -2
BITMAP
F0
F0
E0
E0
E0
E0
ENDCHAR
STARTCHAR 201C
ENCODING 8220
SWIDTH 458 0
DWIDTH 11 0
BBX 9 6 1 11
BITMAP
E700
E700
7380
7380
7380
7380
ENDCHAR
STARTCHAR 201D
ENCODING 8221
SWIDTH 458 0
DWIDTH 11 0
BBX 9 6 1 11
BITMAP
F780
F780
E700
E700
E700
E700
ENDCHAR
STARTCHAR 201E
ENCODING 8222
SWIDTH 458 0
DWIDTH 11 0
BBX 9 6 1 -2
BITMAP
F780
F780
E700
E700
E700
E700
ENDCHAR
STARTCHAR 2020
ENCODING 8224
SWIDTH 416 0
DWIDTH 10 0
BBX 9 16 0 0
BITMAP
0C00
0C00
0C00
0C00
FF80
FF80
0C00
0C00
0C00
0C00
0C00
0C00
0C00
0C00
0C00
0C00
ENDCHAR
STARTCHAR 2021
ENCODING 8225
SWIDTH 416 0
DWIDTH 10 0
BBX 9 16 0 0
BITMAP
0C00
0C00
0C00
0C00
FF80
FF80
0C00
0C00
0C00
0C00
FF80
FF80
0C00
0C00
0C00
0C00
ENDCHAR
STARTCHAR 2022
ENCODING 8226
SWIDTH 375 0
DWIDTH 9 0
BBX 7 7 1 5
BITMAP
7C
7E
FE
FE
FE
7E
7C
ENDCHAR
STARTCHAR 2026
ENCODING 8230
SWIDTH 1333 0
DWIDTH 32 0
BBX 29 4 2 0
BITMAP
E0070038
E0070038
E0070038
E0070038
ENDCHAR
STARTCHAR 2030
ENCODING 8240
SWIDTH 1458 0
DWIDTH 35 0
BBX 32 17 1 0
BITMAP
7F000000
FF81C000
C1838000
C1870000
C1860000
C18E0000
FF9C0000
7F380000
00380000
0077F0FE
00EFF9FF
00CC1983
01CC1983
038C1983
070C1983
070FF9FF
0E07F0FE
ENDCHAR
STARTCHAR 2039
ENCODING 8249
SWIDTH 291 0
DWIDTH 7 0
BBX 6 11 0 2
BITMAP
04
0C
1C
7C
70
E0
70
7C
1C
0C
04
ENDCHAR
STARTCHAR 203A
ENCODING 8250
SWIDTH 291 0
DWIDTH 7 0
BBX 6 11 0 2
BITMAP
80
C0
F0
78
3C
0C
3C
78
F0
C0
80
ENDCHAR
STARTCHAR 2044
ENCODING 8260
SWIDTH 333 0
DWIDTH 8 0
BBX 14 16 -3 0
BITMAP
001C
0038
0070
0060
00E0
01C0
0380
0380
0700
0E00
0C00
1C00
3800
7000
7000
E000
ENDCHAR
STARTCHAR 2070
ENCODING 8304
SWIDTH 500 0
DWIDTH 12 0
BBX 9 8 1 9
BITMAP
7F00
FF80
C180
C180
C180
C180
FF80
7F00
ENDCHAR
STARTCHAR 2074
ENCODING 8308
SWIDTH 500 0
DWIDTH 12 0
BBX 10 8 1 9
BITMAP
C0C0
C0C0
C0C0
C0C0
FFC0
FFC0
00C0
00C0
ENDCHAR
STARTCHAR 2075
ENCODING 8309
SWIDTH 500 0
DWIDTH 12 0
BBX 10 8 1 9
BITMAP
FC00
FC00
C000
FFC0
FFC0
00C0
FFC0
FFC0
ENDCHAR
STARTCHAR 2076
ENCODING 8310
SWIDTH 500 0
DWIDTH 12 0
BBX 10 8 1 9
BITMAP
7C00
FC00
C000
FF80
FFC0
C0C0
FFC0
7F80
ENDCHAR
STARTCHAR 2077
ENCODING 8311
SWIDTH 500 0
DWIDTH 12 0
BBX 10 8 1 9
BITMAP
FFC0
FFC0
0380
0700
0600
0E00
1C00
3800
ENDCHAR
STARTCHAR 2078
ENCODING 8312
SWIDTH 500 0
DWIDTH 12 0
BBX 10 8 1 9
BITMAP
7F80
FFC0
C0C0
FFC0
FFC0
C0C0
FFC0
7F80
ENDCHAR
STARTCHAR 2079
ENCODING 8313
SWIDTH 500 0
DWIDTH 12 0
BBX 10 8 1 9
BITMAP
7F80
FFC0
C0C0
FFC0
7FC0
00C0
0FC0
0F80
ENDCHAR
STARTCHAR 2080
ENCODING 8320
SWIDTH 458 0
DWIDTH 11 0
BBX 9 8 1 0
BITMAP
7F00
FF80
C180
C180
C180
C180
FF80
7F00
ENDCHAR
STARTCHAR 2081
ENCODING 8321
SWIDTH 166 0
DWIDTH 4 0
BBX 2 8 1 0
BITMAP
C0
C0
C0
C0
C0
C0
C0
C0
ENDCHAR
STARTCHAR 2082
ENCODING 8322
SWIDTH 500 0
DWIDTH 12 0
BBX 10 8 1 0
BITMAP
0F80
0FC0
00C0
FFC0
FF80
C000
FFC0
FFC0
ENDCHAR
STARTCHAR 2083
ENCODING 8323
SWIDTH 500 0
DWIDTH 12 0
BBX 10 8 1 0
BITMAP
0780
07C0
00C0
FFC0
FFC0
00C0
FFC0
FFC0
ENDCHAR
STARTCHAR 2084
ENCODING 8324
SWIDTH 500 0
DWIDTH 12 0
BBX 10 8 1 0
BITMAP
C0C0
C0C0
C0C0
C0C0
FFC0
FFC0
00C0
00C0
ENDCHAR
STARTCHAR 2085
ENCODING 8325
SWIDTH 500 0
DWIDTH 12 0
BBX 10 8 1 0
BITMAP
FC00
FC00
C000
FFC0
FFC0
00C0
FFC0
FFC0
ENDCHAR
STARTCHAR 2086
ENCODING 8326
SWIDTH 500 0
DWIDTH 12 0
BBX 10 8 1 0
BITMAP
7C00
FC00
C000
FF80
FFC0
C0C0
FFC0
7F80
ENDCHAR
STARTCHAR 2087
ENCODING 8327
SWIDTH 500 0
DWIDTH 12 0
BBX 10 8 1 0
BITMAP
FFC0
FFC0
0380
0700
0600
0E00
1C00
3800
ENDCHAR
STARTCHAR 2088
ENCODING 8328
SWIDTH 500 0
DWIDTH 12 0
BBX 10 8 1 0
BITMAP
7F80
FFC0
C0C0
FFC0
FFC0
C0C0
FFC0
7F80
ENDCHAR
STARTCHAR 2089
ENCODING 8329
SWIDTH 500 0
DWIDTH 12 0
BBX 10 8 1 0
BITMAP
7F80
FFC0
C0C0
FFC0
7FC0
00C0
0FC0
0F80
ENDCHAR
STARTCHAR 20AC
ENCODING 8364
SWIDTH 833 0
DWIDTH 20 0
BBX 18 16 1 0
BITMAP
0FFFC0
1FFFC0
3FFF80
380000
380000
FFFF00
FFFF00
FFFE00
FFFE00
FFFC00
FFFC00
380000
380000
3FFFC0
1FFFC0
0FFFC0
ENDCHAR
STARTCHAR 2117
ENCODING 8471
SWIDTH 875 0
DWIDTH 21 0
BBX 19 17 1 0
BITMAP
1FFF00
7FFFC0
6000C0
C00060
C00060
C7F860
C60C60
C60C60
C60C60
C7F860
C60060
C60060
C00060
C00060
6000C0
7FFFC0
1FFF00
ENDCHAR
STARTCHAR 2122
ENCODING 8482
SWIDTH 1208 0
DWIDTH 29 0
BBX 27 11 1 5
BITMAP
FFD80060
FFDC00E0
FFDE01E0
0C1F01E0
0C1F03E0
0C1B8760
0C19CE60
0C18EC60
0C18FC60
0C187860
0C183060
ENDCHAR
STARTCHAR 2153
ENCODING 8531
SWIDTH 875 0
DWIDTH 21 0
BBX 18 17 2 0
BITMAP
C00000
C01C00
C03800
C07000
C06000
C0E000
C1C000
C38000
038000
070780
0E07C0
0C00C0
1CFFC0
38FFC0
7000C0
70FFC0
E0FFC0
ENDCHAR
STARTCHAR 2154
ENCODING 8532
SWIDTH 1041 0
DWIDTH 25 0
BBX 23 17 1 0
BITMAP
0F8000
0FC070
00C0E0
FFC1C0
FF8180
C00380
FFC700
FFCE00
000E00
001C3C
00383E
003006
0077FE
00E7FE
01C006
01C7FE
0387FE
ENDCHAR
STARTCHAR 215B
ENCODING 8539
SWIDTH 875 0
DWIDTH 21 0
BBX 19 17 2 0
BITMAP
C00000
C01C00
C03800
C07000
C06000
C0E000
C1C000
C38000
038000
073FC0
0E7FE0
0C6060
1C7FE0
387FE0
706060
707FE0
E03FC0
ENDCHAR
STARTCHAR 215C
ENCODING 8540
SWIDTH 1083 0
DWIDTH 26 0
BBX 24 17 1 0
BITMAP
078000
07C0E0
00C1C0
FFC380
FFC300
00C700
FFCE00
FFDC00
001C00
0039FE
0073FF
006303
00E3FF
01C3FF
038303
0383FF
0701FE
ENDCHAR
STARTCHAR 215D
ENCODING 8541
SWIDTH 1083 0
DWIDTH 26 0
BBX 24 17 1 0
BITMAP
FC0000
FC00E0
C001C0
FFC380
FFC300
00C700
FFCE00
FFDC00
001C00
0039FE
0073FF
006303
00E3FF
01C3FF
038303
0383FF
0701FE
ENDCHAR
STARTCHAR 215E
ENCODING 8542
SWIDTH 958 0
DWIDTH 23 0
BBX 20 17 2 0
BITMAP
FFC000
FFCE00
039C00
073800
063000
0E7000
1CE000
39C000
01C000
039FE0
073FF0
063030
0E3FF0
1C3FF0
383030
383FF0
701FE0
ENDCHAR
STARTCHAR 2202
ENCODING 8706
SWIDTH 666 0
DWIDTH 16 0
BBX 14 18 1 -1
BITMAP
07C0
07F0
07F8
0038
001C
000C
1F8C
3FCC
7FEC
F07C
E01C
E01C
E018
E018
F070
7FF0
3FE0
1F80
ENDCHAR
STARTCHAR 220F
ENCODING 8719
SWIDTH 625 0
DWIDTH 15 0
BBX 13 22 1 -5
BITMAP
FFF8
FFF8
FFF8
E038
E038
E038
E038
E038
E038
E038
E038
E038
E038
E038
E038
E038
E038
E038
E038
E038
E038
E038
ENDCHAR
STARTCHAR 2211
ENCODING 8721
SWIDTH 625 0
DWIDTH 15 0
BBX 13 22 1 -5
BITMAP
FFF8
FFF8
FFF8
7000
3800
1C00
1E00
0E00
0700
0780
03C0
03C0
0780
0700
0E00
1E00
1C00
3800
7000
FFF8
FFF8
FFF8
ENDCHAR
STARTCHAR 2212
ENCODING 8722
SWIDTH 583 0
DWIDTH 14 0
BBX 12 3 1 7
BITMAP
FFF0
FFF0
FFF0
ENDCHAR
STARTCHAR 221A
ENCODING 8730
SWIDTH 583 0
DWIDTH 14 0
BBX 12 16 1 0
BITMAP
0030
0070
0070
0060
00E0
00E0
00C0
F0C0
F1C0
31C0
3980
3B80
1B80
1F00
0F00
0F00
ENDCHAR
STARTCHAR 221E
ENCODING 8734
SWIDTH 791 0
DWIDTH 19 0
BBX 17 12 1 2
BITMAP
3E3E00
7F7F00
7F7F00
E3E380
C1C180
C1C180
C1C180
C1C180
E3E380
7F7F00
7F7F00
3E3E00
ENDCHAR
STARTCHAR 222B
ENCODING 8747
SWIDTH 375 0
DWIDTH 9 0
BBX 8 26 1 -5
BITMAP
07
0F
1C
18
18
18
18
18
18
18
18
18
18
18
18
18
18
18
18
18
18
18
18
38
F0
E0
ENDCHAR
STARTCHAR 2248
ENCODING 8776
SWIDTH 583 0
DWIDTH 14 0
BBX 12 8 1 4
BITMAP
3810
FF70
EFE0
8080
3810
FF70
EFE0
8080
ENDCHAR
STARTCHAR 2260
ENCODING 8800
SWIDTH 583 0
DWIDTH 14 0
BBX 14 16 0 0
BITMAP
001C
0038
0070
7FF8
7FF8
7FF8
01C0
0380
0700
7FF8
7FF8
7FF8
1800
3800
7000
E000
ENDCHAR
STARTCHAR 2264
ENCODING 8804
SWIDTH 583 0
DWIDTH 14 0
BBX 12 18 1 -3
BITMAP
0010
0070
01F0
07C0
1F00
7C00
F000
F000
7C00
1F00
07C0
01F0
0070
0010
0000
FFF0
FFF0
FFF0
ENDCHAR
STARTCHAR 2265
ENCODING 8805
SWIDTH 583 0
DWIDTH 14 0
BBX 12 18 1 -3
BITMAP
8000
E000
F800
3E00
0F80
03E0
00F0
00F0
03E0
0F80
3E00
F800
E000
8000
0000
FFF0
FFF0
FFF0
ENDCHAR
STARTCHAR 25CA
ENCODING 9674
SWIDTH 541 0
DWIDTH 13 0
BBX 11 17 1 0
BITMAP
0600
0E00
1F00
1F00
3B80
3180
71C0
60C0
E0E0
60C0
71C0
3180
3B80
1B00
1F00
0E00
0600
ENDCHAR
STARTCHAR FB01
ENCODING 64257
SWIDTH 708 0
DWIDTH 17 0
BBX 13 17 2 0
BITMAP
7F38
FF38
FF38
E000
FF38
FF38
FF38
E038
E038
E038
E038
E038
E038
E038
E038
E038
E038
ENDCHAR
STARTCHAR FB02
ENCODING 64258
SWIDTH 708 0
DWIDTH 17 0
BBX 13 17 2 0
BITMAP
7F38
FF38
FF38
E038
FF38
FF38
FF38
E038
E038
E038
E038
E038
E038
E038
E038
E038
E038
ENDCHAR
ENDFONT
